<?xml version="1.0" encoding="utf-8" ?><svg xmlns="http://www.w3.org/2000/svg" xmlns:xlink="http://www.w3.org/1999/xlink" width="1024" height="1024" viewBox="0 0 1024 1024"><path fill="#222F32" d="M512.704 158.405C527.608 136.213 547.018 124.378 572.569 116.801C574.122 116.341 575.043 116.31 576.409 117.09C576.242 118.92 575.904 118.71 574.417 120.449L792.685 541.391L866.161 683.182C884.905 719.667 903.921 758.041 924.61 793.364C926.154 780.295 924.515 765.746 923.5 752.725C919.614 702.885 907.188 660.224 880.875 617.591C869.175 598.636 858.662 584.564 844.896 566.623C812.019 523.777 764.536 469.42 794.984 412.577C798.77 405.51 803.921 399.97 809.175 394.083C796.931 390.375 740.568 374.413 758.644 354.335C745.151 343.245 734.637 335.052 720.215 325.317C736.128 317.104 750.176 320.66 765.168 329.202C762.748 320.663 759.057 284.711 762.512 274.916C762.818 274.047 764.388 273.035 765.493 272.922C770.611 272.403 780.502 278.893 784.303 281.875C788.375 285.068 792.494 290.109 795.498 294.023C796.756 289.86 800.326 276.228 806.826 279.35C814.352 282.963 820.677 297.278 823.85 304.666C824.555 306.315 825.241 307.972 825.907 309.637C828.327 307.865 830.767 306.12 833.225 304.401C832.783 302.097 832.368 299.92 832.03 297.59L833.726 297.115C834.354 299.09 834.94 301.469 835.497 303.499C841.05 301.06 846.174 297.934 852.047 295.966L851.198 291.991C851.637 291.671 852.474 290.848 852.912 290.444C853.099 291.886 853.511 294.416 853.581 295.775C859.257 293.93 866.791 292.449 872.712 291.286C877.724 301.946 878.315 306.139 880.693 317.592C889.699 315.488 903.956 315.542 894.879 328.923C892.007 333.156 888.229 336.833 885.118 340.891C898.489 344.271 908.796 339.783 915.998 328.185C913.908 327.008 910.939 325.738 910.361 323.16C907.91 312.223 922.166 313.774 921.539 321.951C920.856 330.857 908.301 340.796 901.234 344.688C921.417 348.878 911.767 353.095 905.08 364.605C908.389 363.328 912.654 361.804 915.739 360.262L915.991 359.555C919.05 351.193 925.461 352.73 926.306 360.772C924.756 364.226 919.794 362.107 916.515 363.17C912.944 364.327 909.549 365.95 906.128 367.487C920.076 373.18 929.564 377.487 940.663 388.417C942.973 390.692 946.257 393.795 948.116 396.398C935.129 404.111 911.25 411.72 896.053 413.255C906.478 417.589 918.808 427.572 922.551 438.487C910.702 438.637 897.521 435.75 886.129 432.437C886.236 434.198 886.504 435.365 885.742 436.933C881.2 436.472 868.828 431.007 863.593 429.442C851.63 425.866 838.848 423.08 827.535 417.903C822.758 415.717 818.212 407.991 816.104 403.331C812.637 409.801 808.588 417.106 805.684 423.773C794.675 449.05 806.715 490.674 822.941 511.646C824.88 491.502 827.979 468.6 844.171 454.353C859.776 440.621 888.58 450.917 886.811 473.236C886.454 477.731 884.471 482.119 880.915 485.034C877.595 487.733 873.281 488.891 869.055 488.218C853.388 485.88 853.534 469.473 861.713 469.22C862.972 470.13 862.549 469.525 862.862 471.202C861.956 473.861 859.387 476.209 860.393 478.84C864.607 488.711 878.44 485.798 882.591 477.113C886.859 468.184 879.302 456.48 870.782 453.549C835.59 441.439 826.793 493.392 825.939 515.636C828.364 520.287 834.105 527.211 837.488 531.509L856.987 556.269C860.138 560.294 865.176 566.489 867.821 570.574C865.871 557.887 867.035 547.721 874.763 537.026C884.653 523.338 904.285 517.657 918.647 528.038C923.765 531.738 928.568 538.374 929.418 544.786C930.141 550.638 928.532 556.539 924.938 561.214C913.973 575.357 891.207 565.991 897.614 548.701C898.534 546.219 902.562 544.436 905.208 544.559L905.614 545.139C903.841 549.407 898.056 551.717 900.24 557.306C902.018 561.855 907.518 564.163 911.767 565.406C916.543 563.963 921.46 561.922 923.719 557.044C932.926 537.162 911.502 521.54 892.803 527.93C874.242 534.272 865.724 556.813 872.123 574.661C875.111 582.996 883.768 593.215 888.896 600.972C895.573 611.207 901.71 621.783 907.283 632.659C930.759 679.561 938.954 727.61 942.874 779.641C944.022 794.882 942.872 810.303 943.713 825.464C950.492 823.069 964.39 817.407 971.215 819.208L971.484 819.959C969.223 822.379 948.952 828.242 944.812 829.595C891.268 847.097 853.563 899.525 883.868 954.136C884.92 956.033 885.778 956.942 884.454 958.436C878.932 959.61 872.945 943.354 871.696 939.032C774.204 939.827 676.707 939.883 579.214 939.202L154.675 939.133C154.473 941.99 154.226 947.245 152.398 949.434L151.302 949.822C147.59 947.406 151.217 930.847 150.92 925.514C148.408 880.364 117.217 846.904 75.3369 833.48C70.7274 832.003 56.6937 829.122 54.2877 825.428L54.5797 824.698C59.55 823.042 75.2875 829.037 80.8346 831.085C82.258 813.061 85.1993 795.066 86.5948 776.996C87.8225 761.1 88.6499 745.236 89.7604 729.339C92.4886 700.317 103.997 665.615 117.202 639.588C122.281 629.478 127.865 619.629 133.931 610.078C141.211 598.652 151.046 587.566 155.078 574.679C161.289 554.829 150.212 529.061 128.047 526.277C111.093 524.348 92.5228 545.125 105.883 560.778C110.941 566.704 121.897 566.383 126.65 560.297C133.517 552.243 122.702 549.163 120.343 545.456L120.757 544.763C134.511 541.986 137.612 565.497 118.099 568.259C113.724 568.892 109.279 567.737 105.766 565.055C88.9765 552.211 102.28 522.763 124.497 522.976C145.497 523.176 159.083 540.038 159.751 560.298C159.727 564.945 159.593 569.351 159.42 573.977C170.08 558.205 183.487 544.348 193.625 528.322C200.232 517.877 200.1 500.456 198.226 488.687C195.493 471.524 182.171 449.416 161.551 453.381C155.824 454.491 150.809 457.913 147.686 462.841C143.181 469.875 143.44 480.016 151.169 484.938C156.501 488.332 164.064 486.294 167.107 480.923C169.358 477.263 165.039 474.225 165.684 471.467C169.408 470.505 171.85 473.347 171.493 476.804C170.062 490.66 152.262 494.359 144.477 483.088C137.13 472.452 142.355 459.878 152.345 453.466C167.809 443.962 185.899 452.782 194.121 467.303C202.838 482.697 204.289 500.261 201.373 517.281C216.788 493.616 232.513 463.977 226.806 434.628C224.248 421.472 217.417 414.903 209.273 405.136C197.52 425.172 171.574 427.554 150.942 432.892C146.028 434.164 141.955 434.742 138.028 431.45C130.968 433.58 112.374 440.145 106.32 437.851C101.471 432.414 118.972 416.137 123.713 412.621C111.256 410.072 88.238 402.213 77.6286 394.732C86.8931 383.767 105.188 371.813 118.259 366.343C112.927 365.604 104.55 362.869 101.078 358.658C99.9074 353.241 109.922 354.566 113.011 351.306C112.431 349.293 112.297 350.17 112.994 348.55C115.143 346.826 118.774 345.587 119.508 344.225C117.497 341.437 114.311 343.221 111.216 341.476C110.306 339.986 110.526 340.795 110.7 338.929C113.927 336.589 122.283 341.43 126.809 341.643C132.654 341.919 137.073 340.228 142.704 339.901C142.39 332.223 142.84 326.235 143.334 318.545C140.64 318.841 136.023 319.237 133.491 319.975C131.758 320.481 130.623 322.57 128.397 322.714C127.284 321.463 127.682 322.212 127.563 320.213C129.894 315.482 139.094 315.404 143.83 315.36C144.634 310.835 147.629 295.506 150.46 293.914C159.497 288.831 188.541 304.504 195.35 308.336C194.41 302.504 193.352 297.224 190.552 291.917C189.096 289.157 181.687 283.191 182.347 280.708C189.21 278.069 195.342 294.809 196.774 299.599C197.213 301.12 197.608 302.653 197.959 304.196C201.275 300.487 204.635 296.789 207.643 292.992C210.889 288.894 212.248 277.985 217.785 276.95C223.724 275.839 227.88 287.961 229.038 292.05C237.355 283.902 247.768 275.177 259.77 273.773C267.13 272.912 265.645 286.94 265.411 291.181C264.809 302.078 262.491 312.791 260.611 323.519C273.244 319.427 288.23 319.113 300.758 324.884C302.07 325.488 302.363 326.007 302.857 327.116C301.15 331.575 274.095 351.89 268.72 355.374C269.995 357.897 271.122 360.42 269.857 363.113C261.212 381.522 231.146 389.522 213.954 393.289C229.746 405.33 238.776 415.987 241.199 436.716C247.599 491.461 203.316 539.6 173.668 580.354C154.185 607.137 136.415 633.871 123.691 664.33C111.82 692.746 108.573 718.695 106.168 749.069C105.066 762.985 103.821 774.574 103.964 788.643C113.102 769.861 123.714 750.576 133.492 732.019C153.373 693.8 173.529 655.725 193.958 617.797L365.501 288.672L435.224 155.635C440.223 146.035 445.137 136.414 450.616 127.077C451.671 125.281 452.774 123.502 453.703 121.638C451.21 120.911 447.254 120.185 446.004 117.98C447.643 112.313 476.209 125.389 480.235 127.303C494.632 134.145 503.755 145.68 512.704 158.405ZM882.813 868.602C878.795 866.639 873.5 864.233 869.783 861.939L871.003 859.486C874 860.143 885.295 860.625 888.982 860.847C894.07 854.816 898.655 850.565 904.912 845.676L656.747 369.632C631.031 320.507 605.613 271.226 580.495 221.792C570.518 201.931 560.397 182.142 550.132 162.428C546.207 154.932 541.312 145.021 537.076 137.843C528.587 144.205 522.351 151.658 516.121 160.16C514.199 162.783 512.66 164.902 510.234 161.458C504.037 152.659 499.027 145.491 490.772 138.261C488.916 142.5 486.38 146.772 484.105 150.82C472.569 171.339 461.697 192.222 450.685 213.029L354.189 395.413C306.87 486.817 258.901 577.883 210.284 668.604C188.682 709.738 166.685 750.663 144.295 791.374L125.113 826.576C121.316 833.58 117.333 841.45 113.223 848.15C122.557 854.338 132.06 865.038 138.333 874.422C147.828 865.319 154.796 861.047 167.2 856.144C159.951 864.305 149.989 872.635 139.69 876.545C143.343 882.988 147.905 890.991 150.028 898.078L664.249 897.806L807.587 897.698C828.274 897.659 850.48 898.129 870.952 897.575C873.537 886.216 876.814 878.707 882.813 868.602ZM217.628 378.255C226.997 372.597 235.07 366.752 245.773 364.399L246.167 364.315C238.161 369.046 230.32 373.566 222.848 379.126C217.511 383.098 215.029 385.339 210.662 390.342C228.057 386.077 246.954 382.221 260.577 369.786C262.933 367.635 267.849 363.174 266.892 359.828C265.496 354.948 254.968 353.849 250.85 354.197C240.927 355.191 229.243 360.692 222.909 368.563C220.562 371.437 218.771 374.724 217.628 378.255ZM807.755 383.621C806.114 382.38 802.745 380.535 802.275 379.301C803.286 378.659 803.822 378.374 804.9 377.846C804.563 371.38 783.142 368.569 777.978 367.122C783.645 367.067 790.696 368.96 795.945 367.568L796.6 366.905C794.665 361.776 772.809 355.861 766.788 356.072C762.753 356.894 756.563 359.424 758.699 363.943C765.193 377.683 803.668 389.589 816.14 391.51C813.493 388.527 810.977 386.016 807.755 383.621ZM220.523 334.042C219.704 329.69 219.045 326.432 217.854 322.186C221.1 327.528 222.802 331.604 223.796 337.815C224.726 345.199 224.614 351.773 224.483 359.159C234.151 333.343 229.078 321.465 222.392 296.338C221.661 293.593 224.624 294.536 225.794 293.248C226.081 288.879 222.34 282.631 218.963 280.062C216.838 280.848 215.846 282.851 215.078 284.93C211.386 294.921 204.326 301.864 197.628 310.286C206.225 317.213 213.917 325.195 220.523 334.042ZM207.992 384.919C210.695 368.065 208.021 358.887 201.451 342.772C210.961 356.458 211.679 362.446 213.272 378.634C218.406 368.275 224.215 354.452 219.904 342.863C209.949 316.106 178.737 300.097 152.227 295.411C145.36 321.908 140.359 345.134 155.014 370.956C160.854 381.246 169.961 390.005 181.646 393.179C187.939 394.888 194.867 392.881 200.962 390.724C184.921 388.395 177.278 380.418 167.645 368.28C181.704 380.648 186.477 384.295 204.742 387.936C196.989 374.547 186.447 360.59 179.735 347.161C178.682 345.193 177.736 343.465 176.834 341.412C189.657 355.83 197.097 371.955 207.992 384.919ZM259.982 326.726C256.264 336.34 253.636 340.234 248.278 348.863C257.548 342.686 266.986 335.61 277.295 331.569C271.659 336.991 268.562 339.326 261.979 343.581C258.676 345.789 255.584 347.774 252.541 350.355C258.245 350.77 260.902 351.446 266.204 353.434C276.719 346.002 289.55 336.251 298.927 327.436C292.81 325.588 283.002 322.57 276.611 323.69C270.108 324.354 266.239 324.885 259.982 326.726ZM771.457 352.077C765.339 344.045 760.755 341.506 754.973 335.115C762.977 339.498 769.588 346.047 776.262 352.208C769.186 340.296 764.044 329.94 749.951 326.003C741.46 323.631 735.519 323.947 726.942 325.391C733.916 330.321 740.298 334.789 747.16 339.954C750.421 342.566 753.656 345.21 756.867 347.884L762.562 352.594L771.457 352.077ZM118.72 363.72C117.591 361.793 114.06 354.854 112.105 354.406C109.601 355.486 106.891 356.6 104.435 357.743C108.026 360.052 109.25 360.535 113.229 362.156L118.72 363.72ZM916.252 324.219C917.292 324.101 918.18 323.411 918.553 322.433C918.925 321.454 918.722 320.349 918.024 319.568C917.326 318.787 916.251 318.46 915.237 318.72C913.81 319.086 912.91 320.495 913.177 321.943C913.445 323.392 914.788 324.387 916.252 324.219ZM850.335 413.547C840.458 409.001 827.97 399.731 817.959 395.674C818.576 399.113 819.74 402.43 821.408 405.5C829.009 419.585 848.092 420.461 862.036 424.939C868.651 427.064 875.116 429.473 881.67 431.514C866.752 403.71 862.371 394.845 828.602 396.084C833.687 402.583 843.269 407.244 850.666 412.517L850.335 413.547ZM132.966 420.789C138.526 418.298 147.631 415.218 152.181 412.762C148.238 412.453 144.867 413.306 141.176 413.331C124.195 413.448 115.885 420.84 108.248 435.881C122.643 433.517 137.281 431.719 146.056 419.473L146.516 418.826L135.078 422.4L132.966 420.789ZM897.127 432.212C903.646 433.748 910.484 434.545 917.145 435.244C899.976 412.888 897.856 418.722 873.433 410.255C875.084 412.644 876.818 415.263 878.517 417.591C883.724 419.229 892.624 421.683 896.863 424.805L896.595 425.083C891.948 423.76 884.381 421.888 880.152 420.384L884.448 427.406C889.025 429.579 892.211 430.832 897.127 432.212ZM889.921 387.577C887.231 388.288 883.444 389.393 880.786 389.843C873.875 392.339 865.19 390.63 858.235 390.703C857.198 390.714 856.713 391.584 856.235 392.323L856.934 393.287C866.499 398.117 899.872 398.363 911.759 399.692C895.909 401.186 879.444 401.578 863.656 398.941C868.223 402.582 872.272 405.581 877.891 407.492C899.108 414.71 924.72 404.444 943.796 395.327C927.609 381.312 922.223 375.784 900.945 369.912C894.769 375.336 889.417 381.38 882.847 386.59C885.028 386.51 887.418 386.476 889.576 386.333L889.921 387.577ZM148.987 368.202C146.526 360.972 144.222 351.271 142.64 343.546C142.485 343.463 142.33 343.38 142.175 343.297C131.086 344.238 125.074 345.282 115.362 350.462C122.45 367.941 140.381 383.4 157.193 391.138C159.952 392.028 167.637 395.008 170.153 393.067C167.311 389.869 163.587 387.089 160.988 384.068C154.725 376.786 147.959 371.054 141.149 364.465C143.803 365.621 146.417 366.868 148.987 368.202ZM151.397 901.913C152.822 908.063 154.089 914.249 155.197 920.464C181.109 919.57 209.117 920.054 235.199 920.061L369.563 920.073L691.977 920.08C750.169 920.106 810.667 919.281 868.696 920.547C868.562 914.577 868.859 907.356 869.953 901.484C861.283 900.944 850.65 901.215 841.776 901.227L795.354 901.231L652.886 901.25C608.366 901.608 563.844 901.712 519.322 901.562L296.189 901.708L207.617 901.696C190.265 901.636 168.421 901.041 151.397 901.913ZM133.27 385.629C135.994 385.938 138.693 386.555 141.385 387.105C135.669 381.823 127.565 374.696 122.761 368.922C106.96 374.048 94.9072 382.229 83.2373 394.016C109.388 407.012 140.124 421.13 166.17 399.532C156.653 399.253 147.067 401.135 137.362 401.526C131.557 401.761 123.59 399.939 119.198 400.164L118.917 399.19C131.195 398.047 146.114 399.382 157.963 395.495C146.023 388.9 141.423 390.177 130.472 386.219L133.27 385.629ZM208.65 396.134C197.455 403.873 193.13 406.399 179.517 410.082C177.505 410.53 174.32 411.417 172.365 410.952C173.204 409.962 174.373 409.687 175.621 409.202C186.592 404.732 196.251 401.613 205.483 393.976C173.743 398.308 158.989 402.528 141.836 430.836C157.504 428.567 193.743 421.633 203.382 408.551C205.814 405.251 207.486 400.126 208.65 396.134ZM886.257 320.222C884.796 320.353 882.563 320.314 881.528 321.016C881.326 326.495 882.26 333.876 882.595 339.504L887.328 334.824C892.413 328.977 900.74 319.474 886.257 320.222ZM226.422 300.405C229.798 308.903 232.171 317.942 232.924 327.101C233.195 330.4 232.65 335.561 233.385 338.445C234.337 337.359 234.885 336.555 235.697 335.386C237.275 331.789 240.226 326.669 242.411 323.368C240.359 330.018 239.528 332.991 236.125 339.073C236.006 339.477 233.414 344.672 232.939 345.84C230.99 350.635 229.449 355.225 227.784 360.117C249.325 345.501 257.088 332.258 260.409 305.994C261.152 300.12 264.397 281.195 260.524 277.394C251.353 274.339 231.423 293.471 226.422 300.405ZM812.272 397.291C798.131 408.971 790.424 426.392 788.908 444.625C784.768 494.446 832.632 542.041 859.625 579.715C873.002 598.386 886.031 617.446 896.379 637.649C916.296 676.531 925.464 718.282 927.853 761.671C928.644 776.047 929.296 787.444 928.268 801.935C930.686 806.81 933.259 811.607 935.983 816.318C937.113 818.013 938.29 819.858 939.471 821.5C941.589 802.604 938.99 772.52 936.732 753.536C927.004 671.76 907.558 629.034 858.159 563.862C837.781 536.977 814.344 512.542 803.414 479.995C798.475 465.288 796.075 449.127 798.971 433.73C799.682 429.949 800.653 426.428 802.187 422.896C804.377 417.85 814.703 401.582 812.98 397.634L812.272 397.291ZM212.345 396.315C211.783 398.171 211.129 400.176 210.692 402.052C231.493 422.032 236.131 442.557 228.188 470.138C218.442 503.979 195.298 533.375 173.794 560.473C134.129 610.39 99.193 667.455 93.0878 732.318C92.1806 741.955 91.407 754.018 91.3153 763.667C91.1277 783.405 85.9833 804.273 85.4305 823.453L85.4051 824.135L85.3942 824.544C86.225 823.174 87.5736 821.104 88.1803 819.691C90.7093 814.702 98.487 800.46 99.239 795.97C100.647 787.563 100.34 774.707 101.002 765.45C103.476 730.828 105.612 701.599 118.196 668.68C130.042 637.694 145.617 613.999 164.859 586.444C195.782 542.161 252.552 485.014 235.312 425.38C231.701 412.89 222.375 403.824 212.345 396.315ZM111.137 844.33C206.2 670.097 299.246 494.772 390.256 318.388L456.293 194.047C466.237 175.523 478.066 154.825 487.505 136.335C481.784 132.666 478.068 130.45 471.761 127.836C457.227 153.218 444.873 177.676 431.191 203.462C408.193 246.288 385.496 289.275 363.104 332.421L187.4 667.022L122.975 789.655L106.215 821.53C104.003 825.651 99.4614 834.414 96.7197 837.887C99.315 839.394 108.128 844.689 110.261 845.263C111.084 844.629 110.856 844.99 111.137 844.33ZM908.309 843.169C913.604 840.08 919.201 836.547 924.688 833.935C908.192 804.519 892.213 773.427 876.528 743.503C851.285 695.712 826.346 647.761 801.714 599.653L646.688 301.777C633.787 277.028 621.013 252.213 608.366 227.333C593.649 198.742 578.943 170.094 564.021 141.61C562.691 139.07 558.098 128.729 556.805 126.998C551.343 129.401 545.217 132.148 540.094 135.23C564.102 178.809 586.503 225.363 609.329 269.76L722.683 488.337L849.298 731.213L886.989 802.923C893.871 815.907 901.864 830.107 908.309 843.169ZM458.705 122.746C453.427 131.101 446.757 144.713 442.108 153.727L419.128 197.777L345.992 337.072L180.407 653.289C158.709 695.044 136.802 736.689 114.686 778.223C105.205 796.313 96.2852 815.076 86.474 832.972C88.5277 833.958 91.3146 835.484 93.4637 835.893C94.269 835.121 94.0175 835.51 94.3616 834.832C107.366 808.966 122.784 781.198 136.486 755.573L193.415 647.961L368.937 312.359L438.509 180.948C444.057 170.312 449.686 159.719 455.397 149.17C459.228 142.147 464.375 133.35 467.799 126.28C464.851 125.138 461.595 123.956 458.705 122.746ZM162.51 924.214L155.522 924.454L155.498 934.712C186.332 935.46 219.555 934.832 250.523 934.822L425.104 934.849L865.261 935.131L870.524 935.016C869.739 931.062 869.307 928.199 868.863 924.187C829.174 923.324 786.974 924.211 747.074 924.18L488.298 924.116L279.659 924.236C252.224 924.051 224.789 924.011 197.353 924.117C186.107 924.145 173.608 923.886 162.51 924.214ZM569.211 121.988C566.053 123.216 562.072 124.644 559.064 126.041C563.721 131.801 569.037 142.975 572.666 149.951L591.601 186.456L659.619 317.271C748.245 489.402 837.755 661.075 928.147 832.285L936.952 827.959C925.883 810.505 912.873 783.899 903.143 765.08L853.372 669.216L611.767 203.802L579.766 141.883C578.328 139.075 570.595 122.617 569.211 121.988Z"/><path fill="#2E3F41" d="M505.799 292.26C579.43 288.304 642.335 344.768 646.324 418.397C650.313 492.027 593.876 554.957 520.249 558.979C446.575 563.003 383.597 506.523 379.605 432.847C375.614 359.172 432.122 296.218 505.799 292.26Z"/><path fill="#FDFDFD" d="M508.915 296.211C580.368 293.957 640.132 350.029 642.432 421.48C644.733 492.931 588.7 552.731 517.25 555.078C445.735 557.427 385.868 501.332 383.566 429.815C381.263 358.298 437.397 298.468 508.915 296.211Z"/><path fill="#40635C" d="M504.546 302.221C540.646 300.822 573.339 325.686 575.522 362.882C577.479 396.253 549.259 425.92 516.453 428.228C510.861 428.621 505.201 428.023 499.606 428.184C485.945 428.941 471.819 437.861 462.992 447.791C451.789 460.451 446.159 477.091 447.374 493.953C448.563 511.081 456.514 525.158 469.354 536.25C472.015 538.607 476.355 541.61 479.314 543.789C460.763 536.506 448.533 530.819 433.293 517.096C407.773 494.117 391.953 464.99 390.212 430.351C388.602 398.003 399.931 366.343 421.698 342.36C443.624 318.346 471.961 303.802 504.546 302.221Z"/><path fill="#FDFDFD" d="M507.775 351.169C514.623 350.425 521.343 353.418 525.372 359.006C529.4 364.595 530.115 371.916 527.244 378.178C524.373 384.441 518.359 388.677 511.496 389.272C501.044 390.179 491.81 382.503 490.79 372.062C489.77 361.62 497.345 352.303 507.775 351.169Z"/><path fill="#40635C" d="M508.759 471.768C519.692 470.169 529.836 477.779 531.36 488.723C532.884 499.667 525.205 509.759 514.25 511.207C503.402 512.642 493.429 505.053 491.92 494.215C490.41 483.376 497.931 473.351 508.759 471.768Z"/><path fill="#40635C" d="M290.999 606.552C294.522 606.47 296.775 606.142 298.336 609.886C301.734 618.031 304.46 626.554 307.28 634.925C312.746 651.172 318.105 667.456 323.356 683.774C326.908 694.958 330.578 708.182 335.249 718.768C339.43 720.276 343.649 721.68 347.899 722.981C354.361 720.868 360.086 718.732 363.945 712.958C363.991 712.284 364.029 711.609 364.059 710.934C364.675 697.394 363.929 681.971 364.21 668.147C364.188 656.893 364.374 644.579 364.026 633.441C363.568 618.808 353.71 623.624 345.349 616.795C343.444 615.24 343.639 610.178 346.092 608.88C352.737 605.364 363.328 607.399 370.779 607.223C372.546 607.183 376.559 608.3 377.889 609.572C383.334 615.163 388.3 624.004 392.494 630.607L417.425 669.496C422.002 676.694 427.581 686.665 432.916 692.986C432.438 671.757 433.835 650.428 432.61 629.119C431.767 614.479 422.37 622.355 419.723 615.08C416.57 606.416 433.943 606.586 438.987 606.956C441.96 607.174 451.598 606.9 454.79 609.347C463.699 619.434 444.561 617.159 443.901 625.025C443.182 633.595 443.495 642.861 443.507 651.465L443.729 708.125C443.924 716.924 443.789 724.538 443.453 733.34C439.301 733.412 435.149 733.457 430.996 733.474C426.868 728.262 418.625 714.498 414.577 708.155C401.564 687.762 388.931 666.577 374.968 646.794C374.878 668.069 373.943 692.79 375.473 714.234C375.856 719.601 391.849 719.864 393.65 726.635C393.346 729.528 390.645 732.193 387.753 732.425C376.777 733.305 365.52 733.061 354.506 732.958C352.556 732.94 349.415 730.675 346.807 730.65C346.025 731.025 343.38 732.397 342.725 732.408C335.105 732.529 327.668 732.212 320.034 732.789C316.258 732.69 310.004 733.783 306.399 732.609C291.037 727.607 304.428 719.821 310.901 716.945C308.614 709.769 306.243 702.62 303.786 695.5C292.668 695.357 281.548 695.417 270.432 695.681C268.67 700.827 264.864 710.767 264.643 715.656C264.512 718.57 278.771 721.829 279.157 728.55C276.921 733.822 263.132 732.624 258.189 732.883C240.726 733.799 230.496 726.696 251.679 716.599C261.555 698.96 283.675 613.409 290.999 606.552ZM274.053 684.335C278.683 684.191 283.314 684.083 287.945 684.01L300.464 684.03C298.841 678.73 289.234 645.842 287.303 643.857L274.053 684.335Z"/><path fill="#40635C" d="M484.387 606.22C501.425 605.969 526.595 604.533 541.719 611.673C585.709 632.44 584.851 714.744 537.218 731.149C527.269 732.931 473.353 734.783 466.294 730.674C465.169 730.019 464.238 728.347 464.01 727.06C462.921 720.917 474.99 720.228 477.384 715.75C479.116 712.511 478.849 629.581 477.443 624.479C476.588 621.378 470.193 619.64 467.608 618.027C465.663 616.814 464.437 615.733 463.919 613.431C465.168 605.747 478.516 606.502 484.387 606.22ZM536.188 713.519C554.18 695.824 553.618 644.206 536.146 625.813C529.437 618.75 516.764 615.253 507.296 617.155C502.76 617.7 499.923 617.439 499.791 622.998C499.346 641.824 499.685 660.674 499.845 679.502C499.971 687.663 499.243 712.325 500.691 718.054C503.599 720.886 506.107 720.992 510.124 720.903C519.86 720.689 528.405 719.98 536.188 713.519Z"/><path fill="#40635C" d="M692.27 607.207C694.231 607.003 697.125 606.839 699.18 606.903C719.676 607.509 756.17 602.32 766.542 625.594C776.232 647.34 765.264 665.623 745.425 674.814C751.902 687.45 761.741 708.432 771.226 718.857C772.129 719.85 778.124 723.013 779.848 723.977C779.964 726.886 779.946 730.068 779.989 733.002C772.217 733.415 762.683 733.461 755.109 732.035C747.88 726.23 739.749 708.202 734.976 699.305C731.665 692.987 725.769 683.906 723.126 677.873L713.955 677.889C713.986 688.003 712.869 703.856 714.957 713.78C716.133 719.371 728.853 719.45 731.397 725.852C731.465 728.895 728.5 731.963 725.541 732.133C713.036 732.855 700.021 733.558 687.534 732.493C684.476 732.232 677.839 730.517 677.874 726.682C677.23 718.262 690.899 722.307 691.157 713.913C691.877 690.492 691.395 666.91 691.364 643.472C691.356 637.545 691.349 630.388 690.684 624.616L690.598 623.898C685.403 619.153 666.124 613.022 684.924 608.253C687.357 607.635 689.776 607.436 692.27 607.207ZM713.719 667.414C722.223 666.986 729.344 666.851 736.989 662.547C739.817 660.344 741.836 658.772 743.587 655.464C748.007 647.114 747.744 633.903 742.039 626.259C736.889 619.359 726.835 617.504 718.691 618.201C717.153 618.336 714.884 618.305 713.795 619.191C713.387 623.103 713.452 627.917 713.55 631.897C713.84 643.658 713.296 655.679 713.719 667.414Z"/><path fill="#222F32" d="M794.829 752.694C805.954 751.96 817.066 754.316 826.935 759.502C856.826 775.114 873.113 817.178 856.988 848.249C849.519 862.64 835.355 872.529 820.077 877.122C786.932 887.088 760.974 866.504 743.479 840.141C733.156 825.083 726.476 808.16 709.701 798.861C687.582 786.6 656.29 796.038 644.09 817.978C640.497 824.44 639.765 831.763 642.199 838.879C644.552 845.99 649.715 851.827 656.485 855.033C670.082 861.462 684.568 854.428 690.744 841.179C695.124 831.78 689.671 825.795 686.433 817.538L687.219 817.904C691 819.7 693.566 822.007 694.73 826.127C698.691 840.153 689.015 855.093 675.684 859.283C657.704 864.935 642.203 852.953 637.476 836.188C634.48 825.562 634.487 816.631 639.977 806.855C646.484 795.103 657.515 786.525 670.508 783.113C684.862 779.272 702.29 781.038 715.426 788.085C745.639 804.293 749.056 843.247 779.113 860.357C790.492 866.937 804.04 868.662 816.705 865.144C855.411 854.295 860.312 809.837 834.794 783.475C828.601 777.078 824.172 774.392 816.429 770.324C823.689 780.543 824.128 791.79 819.235 803.26C818.097 805.926 814.51 808.959 811.594 807.234C811.994 805.539 813.692 804.068 814.762 802.523C818.583 796.946 819.976 790.057 818.621 783.434C817.363 777.233 813.724 771.771 808.486 768.222C808.35 768.135 808.214 768.047 808.078 767.959C799.869 766.861 792.503 768.17 785.359 772.681C784.007 773.534 783.769 773.939 783.514 775.172C786.779 777.093 793.63 774.971 799.895 781.138C803.601 784.833 805.669 789.86 805.636 795.093C805.561 802.412 801.806 809.483 794.634 812.15C785.081 815.701 778.48 813.314 772.037 805.51C769.262 800.515 768.246 795.111 769.189 789.492C772.267 770.852 793.769 761.471 810.867 764.892C831.648 769.048 846.279 788.083 852.103 807.49C854.432 815.252 854.996 822.538 853.403 830.491C850.948 843.375 843.366 854.709 832.394 861.896C820.011 869.963 806.613 871.772 792.369 868.804C764.248 863.382 752.647 839.586 738.856 816.466C721.935 788.098 687.752 774.042 657.719 792.44C646.955 799.034 640.551 810.67 638.152 823.155C639.444 820.503 640.748 817.874 642.097 815.244C651.311 797.131 674.317 788.744 693.539 790.324C715.765 792.039 729.657 810.728 740.199 828.348C758.881 859.573 786.307 887.797 825.152 871.452C853.953 859.333 865.903 832.751 856.944 803.015C851.113 783.664 837.72 766.931 818.647 759.58C806.386 754.773 791.318 754.857 779.424 760.33C770.137 764.519 762.937 772.282 759.456 781.857C756.59 789.701 756.357 798.307 759.979 805.973C762.417 811.031 766.188 815.33 770.885 818.407C789.878 831.001 801.654 816.659 819.778 821.901C830.923 825.125 834.117 846.599 818.589 851.67C814.353 853.009 809.759 852.625 805.804 850.601C802.076 848.66 799.323 845.257 798.204 841.206C796.727 835.974 797.791 831.413 800.361 826.819L800.708 826.208C788.267 827.191 777.4 828.1 766.874 820.011C759.872 814.695 755.334 806.758 754.303 798.027C753.067 787.454 756.158 776.83 762.875 768.571C771.187 758.377 782.077 754.033 794.829 752.694ZM791.128 809.547C799.139 807.239 803.828 798.943 801.675 790.89C799.522 782.836 791.318 777.988 783.224 779.985C777.848 781.312 773.608 785.44 772.138 790.779C770.668 796.118 772.196 801.834 776.135 805.727C780.073 809.619 785.807 811.08 791.128 809.547ZM814.773 848.928C821.628 848.055 826.472 841.784 825.585 834.931C824.697 828.078 818.415 823.248 811.565 824.15C804.735 825.049 799.922 831.308 800.807 838.14C801.691 844.972 807.94 849.798 814.773 848.928Z"/><path fill="#40635C" d="M595.728 607.243C611.57 606.734 628.068 607.387 643.884 607.005C665.169 606.49 664.123 608.49 664.044 628.966C664.027 633.167 664.898 638.134 658.562 638.317C650.927 638 653.586 625.065 648.944 621.205C641.789 616.086 625.748 617.856 617.647 618.235C618.273 631.666 617.66 648.123 617.994 662.02C622.463 662.154 627.049 662.443 631.436 661.65C639.783 661.152 633.621 646.519 637.231 643.406C643.451 638.044 647.613 646.005 647.562 651.369C647.454 657.678 647.814 663.913 647.496 670.244C647.233 675.485 649.662 690.823 641.707 690.954C633.169 691.094 638.239 679.382 634.3 675.931C630.745 672.817 622.248 673.245 617.931 673.313L617.875 698.625C617.757 707.608 616.99 714.49 625.244 720.033C633.412 720.804 647.866 721.481 654.852 717.308C657.098 712.572 657.817 701.694 663.656 701.131C673.574 700.176 670.363 717.844 670.108 723.462C669.627 734.032 662.073 732.212 654.392 732.136C632.857 732.433 611.082 733.146 589.547 731.791C580.679 731.243 577.2 722.767 587.149 720.046C589.383 719.435 591.818 718.418 593.949 717.503C595.191 713.469 595.804 705.344 595.917 700.94C596.165 691.283 595.271 681.205 595.435 671.503C595.64 659.379 596.312 647.576 595.649 635.425C595.503 632.748 595.675 627.47 595.056 625.047C593.808 620.164 587.457 619.874 583.881 617.719C582.877 617.085 581.973 616.033 581.884 614.809C581.349 607.446 590.771 607.484 595.728 607.243Z"/><path fill="#222F32" d="M225.837 755.204C226.979 755.093 228.125 755.028 229.272 755.008C249.299 754.658 271.054 769.985 271.003 791.336C270.926 800.326 267.216 808.904 260.717 815.117C251.275 824.312 243.116 824.738 230.903 824.495C233.422 830.358 234.397 836.369 231.097 842.184C228.893 846.034 225.214 848.819 220.91 849.895C216.366 851.086 211.531 850.32 207.578 847.783C199.303 842.454 196.734 830.578 202.526 822.405C209.294 813.326 220.766 818.38 229.094 820.32C262.965 828.211 283.433 785.313 252.176 765.299C227.099 749.243 195.699 763.271 180.849 785.538C171.674 799.185 168.338 815.934 171.584 832.055C177.688 862.085 205.061 882.021 235.364 874.879C251.052 871.374 270.042 859.643 278.526 845.596C292.413 822.601 304.375 795.338 333.581 788.944C346.908 786.026 362.104 789.924 373.08 798.136C377.508 801.449 381.082 805.717 385.922 808.677C380.602 796.231 368.067 789.037 355.336 785.751C345.601 783.238 335.986 783.615 326.372 786.529C289.823 797.606 283.822 844.072 253.638 862.412C241.777 869.721 227.486 871.986 213.945 868.703C186.055 861.742 170.92 831.489 177.861 804.392C180.985 792.196 190.117 780.47 201.054 774.325C211.859 768.255 226.675 765.094 238.841 768.367C251.406 771.676 263.916 783.435 259.089 797.52C255.032 809.359 242.917 817.397 230.4 812.541C226.296 810.957 222.991 807.804 221.216 803.778C217.561 795.438 220.242 787.384 228.732 783.769C233.26 783.185 242.101 786.464 238.754 791.03C235.875 791.215 232.924 787.345 229.164 787.385C226.449 788.365 225.525 789.975 223.929 792.396L223.547 792.983C221.608 822.884 261.561 810.545 256.376 788.03C252.952 773.167 232.84 768.003 219.166 770.93C211.725 778.646 204.69 791.006 210.313 801.572C211.482 803.769 213.234 805.206 213.849 807.612L213.372 808.337C204.825 809.068 204.567 794.387 205.563 788.761C206.606 782.867 209.455 777.448 213.002 772.676C192.738 780.401 179.621 795.111 179.642 817.554C179.569 831.158 184.922 844.231 194.516 853.877C202.809 862.072 214.401 867.259 226.096 866.892C268.609 865.559 276.283 823.715 300.909 798.261C311.306 787.514 326.08 780.584 341.026 780.485C354.849 780.393 371.476 785.944 381.411 795.743C389.523 803.898 392.033 812.636 392.057 823.714C392.103 844.754 381.779 861.121 358.652 860.26C343.785 859.707 332.523 848.313 333.377 833.013C333.629 828.495 334.611 823.759 338.237 820.703C339.581 819.575 341.224 818.57 343.016 818.754C343.13 818.981 343.245 819.207 343.359 819.434C340.591 824.907 337.683 827.226 335.944 833.138L335.735 833.858C337.088 840.631 338.837 846.659 344.429 851.256C355.729 860.545 373.143 858.574 382.137 847.055C386.707 841.257 388.688 833.834 387.617 826.53C384.39 804.096 357.812 788.367 336.335 791.835C305.445 796.823 294.161 828.654 278.479 851.249C268.56 865.541 248.492 876.369 231.406 878.915C216.654 881.132 201.629 877.341 189.694 868.391C177.5 859.16 169.295 844.693 167.3 829.524C162.306 791.54 187.913 759.745 225.837 755.204ZM221.039 846.382C237.979 836.292 228.57 818.502 211.622 820.581C194.863 829.486 204.343 849.391 221.039 846.382Z"/><path fill="#222F32" d="M450.332 787.517C470.697 787.185 480.384 806.13 491.278 819.867C495.424 825.094 500.05 827.672 506.004 830.483C493.823 853.363 461.179 868.509 436.172 870.045C431.767 870.315 424.609 870.553 421.142 873.246C414.642 888.163 444.452 881.334 450.404 879.943C475.551 874.065 499.371 863.32 513.452 840.723C518.557 849.606 531.873 863.74 541.792 868.265C560.009 875.975 583.185 886.881 603.159 882.614C608.77 881.415 606.809 872.697 603.342 871.956C599.163 871.062 593.533 871.174 589.05 870.648C562.834 867.574 534.051 854.418 520.93 830.415C540.861 818.491 540.044 804.339 558.277 792.563C561.628 790.399 568.853 787.723 572.86 788.657L572.898 789.28C570.28 791.559 560.142 794.259 554.854 799.479C542.871 811.31 540.425 822.089 525.733 831.384C530.983 840.435 537.936 849.601 549.587 847.629C563.901 841.112 556.142 826.406 546.682 828.097C543.662 831.194 547.482 834.597 545.564 837.946C543.071 838.126 541.1 836.676 540.792 834.02C539.597 823.728 550.443 822.421 557.054 827.987C559.67 830.212 561.24 833.427 561.386 836.858C561.866 846.218 554.017 851.41 545.391 851.55C563.872 863.435 577.498 866.529 599.073 867.814C615.393 868.786 616.28 891.946 587.745 886.437C557.326 880.564 532.911 874.017 513.483 847.78C494.055 871.873 463.446 883.596 433.366 886.359C426.323 887.006 421.903 886.34 417.206 880.764C414.771 863.269 427.524 867.912 439.67 866.435C454.234 864.664 468.809 858.394 481.324 850.889C476.102 850.48 473.066 850.103 468.967 846.268C464.02 841.64 464.973 831.571 469.727 827.268C471.783 825.395 474.512 824.438 477.287 824.618C489.446 825.32 485.655 839.276 479.273 837.459C478.749 834.863 481.967 833.487 480.783 829.672C477.868 826.759 474.498 827.891 471.784 830.515C469.852 832.364 468.798 834.949 468.888 837.623C469.008 840.5 470.358 843.188 472.596 845.001C482.979 853.522 495.527 839.404 501.516 832.031C484.74 824.565 482.994 810.906 470.507 799.277C465.511 794.624 457.112 792.625 451.106 789.84C450.256 789.446 450.46 788.479 450.332 787.517Z"/><path fill="#222F32" d="M508.407 777.224C514.298 775.733 520.536 777.527 524.735 781.92C528.934 786.312 530.445 792.624 528.692 798.442C526.938 804.26 522.19 808.685 516.263 810.025C507.259 812.061 498.292 806.48 496.142 797.502C493.992 788.525 499.458 779.488 508.407 777.224ZM513.258 806.854C518.072 806.612 522.382 803.795 524.534 799.482C526.686 795.169 526.346 790.031 523.645 786.039C520.944 782.047 516.301 779.822 511.497 780.216C504.231 780.813 498.787 787.128 499.268 794.402C499.749 801.676 505.977 807.22 513.258 806.854Z"/><path fill="#222F32" d="M510.771 784.619C515.682 783.594 520.488 786.761 521.484 791.678C522.48 796.594 519.285 801.381 514.363 802.349C509.481 803.309 504.741 800.146 503.753 795.27C502.765 790.393 505.901 785.635 510.771 784.619ZM513.751 798.5C516.49 797.883 518.254 795.215 517.75 792.453C517.245 789.691 514.651 787.819 511.871 788.211C509.969 788.479 508.366 789.767 507.696 791.567C507.025 793.367 507.395 795.39 508.659 796.837C509.922 798.284 511.877 798.922 513.751 798.5Z"/><path fill="#222F32" d="M569.933 780.196C571.255 780.138 572.691 780.071 574.009 780.091C582.826 780.259 591.231 783.855 597.441 790.116C607.328 800.198 609.123 817.028 598.607 827.341C587.301 838.429 563.522 831.001 566.158 813.704C566.77 809.772 568.952 806.257 572.204 803.964C575.635 801.54 579.925 800.667 584.03 801.557C589.926 802.871 595.113 808.835 593.516 815.068C592.852 817.57 591.209 819.699 588.957 820.976C582.798 824.395 574.857 819.506 576.896 812.233C577.356 810.59 581.387 808.689 583.074 809.407C583.323 812.662 579.302 815.211 582.656 818.294C589.549 820.328 592.472 812.501 586.99 806.559C577.487 802.522 571.85 806.472 569.269 815.934C572.59 831.594 589.452 833.739 598.592 821.616C606.933 810.554 601.093 796.4 590.648 789.08C572.504 776.363 551.762 786.272 539.548 802.078C538.226 803.779 535.326 807.404 533.196 807.75L532.983 807.014C533.445 805.241 534.605 802.11 535.84 800.752C546.347 789.194 554.661 782.237 569.933 780.196Z"/><path fill="#222F32" d="M451.234 780.199C461.297 780.552 468.689 781.43 476.634 788.341C480.236 791.475 491.889 802.623 492.25 806.973L491.643 807.346C489.306 806.698 486.702 803.754 485.136 801.901C475.276 790.236 462.512 780.11 446.202 784.409C433.376 787.789 421.323 802.259 425.846 816.128C427.346 820.853 430.712 824.76 435.162 826.944C446.299 832.393 460.214 823.349 455.797 810.4C454.768 807.383 449.703 805.623 446.708 804.706C434.483 807.165 436.478 818.273 443.81 818.848C446.833 816.974 444.88 812.796 446.779 809.562L447.791 809.378C457.078 814.427 445.22 825.28 439.264 821.402C431.58 816.399 432.783 804.269 442.719 801.579C450.428 799.492 458.044 803.934 460.392 812.021C463.026 836.859 425.553 838.73 421.924 814.955C419.068 796.243 433.267 782.288 451.234 780.199Z"/><path fill="#FDFDFD" d="M815.653 382.641C807.7 373.064 801.924 365.347 803.17 352.032C804.589 336.874 814.623 323.752 826.044 314.375C840.259 302.704 853.056 298.352 870.902 295.423C882.589 322.77 883.998 376.278 850.469 389.429C846.323 391.055 841.621 392.932 837.259 391.257L836.754 390.429C837.646 388.841 840.939 386.246 842.409 385.109C851.174 378.326 853.713 374.308 857.728 364.249L857.027 363.232C849.073 378.741 839.637 386.78 822.722 390.482C832.419 376.875 840.792 360.494 847.45 345.177C838.226 357.056 829.197 372.977 820.386 385.577C816.502 368.779 816.348 356.084 824.915 340.848C813.721 353.44 814.982 366.647 815.653 382.641Z"/><path fill="#5B5C5E" d="M857.027 363.232L858.257 360.712L858.701 360.645C858.402 362.354 858.326 362.616 857.728 364.249L857.027 363.232Z"/><path fill="#FDFDFD" d="M765.335 276.208C781.353 281.756 784.993 285.394 794.015 299.376C792.048 307.092 790.428 313.72 789.483 321.687C789.016 325.696 788.716 329.722 788.583 333.755C788.505 336.727 789.288 342.202 787.513 344.418L786.709 344.182C783.272 340.586 779.648 332.522 778.026 327.828L777.335 328.613C778.514 331.228 780.183 337.039 781.545 340.312C784.778 348.082 787.757 352.543 792.422 359.302C764.601 347.537 763.148 301.711 765.335 276.208Z"/><path fill="#95999C" d="M777.335 328.613C776.853 327.347 776.852 327.007 776.649 325.648L777.069 325.65L778.026 327.828L777.335 328.613Z"/><path fill="#FDFDFD" d="M804.582 281.513C815.113 291.72 817.547 298.358 822.949 311.95C814.654 319.848 809.5 324.845 804.24 335.407C803.991 330.045 803.99 327.486 804.699 322.172L803.945 319.268C801.308 329.858 800.062 350.258 798.77 362.032C787.872 338.054 792.23 304.092 804.582 281.513Z"/><path fill="#5B5C5E" d="M803.945 319.268L804.549 318.368C805.129 319.769 804.906 320.547 804.699 322.172L803.945 319.268Z"/><path fill="#FDFDFD" d="M881.628 344.915C892.68 346.234 899.639 347.562 910.562 350.007C903.307 363.349 895.001 371.302 883.946 381.234C876.06 387.268 871.597 387.647 862.157 387.219C875.738 375.179 880.016 362.861 881.628 344.915Z"/><path fill="#FDFDFD" fill-opacity="0.011764706" d="M218.963 280.062C222.34 282.631 226.081 288.879 225.794 293.248C224.624 294.536 221.661 293.593 222.392 296.338C229.078 321.465 234.151 333.343 224.483 359.159C224.614 351.773 224.726 345.199 223.796 337.815L224.511 336.315L225.099 336.211C226.935 341.905 224.741 347.744 226.038 350.271L226.531 350.188C226.572 343.993 229.296 336.818 228.329 330.663C227.676 326.505 226.941 319.729 225.757 315.658C223.832 309.553 221.487 303.436 220.317 297.129C219.893 294.847 221.949 293.618 223.131 291.919C223.067 286.95 219.876 284.768 218.963 280.062Z"/><path fill="#5B5C5E" fill-opacity="0.031372551" d="M747.16 339.954C747.988 338.907 748.768 337.845 749.727 336.92C752.22 339.424 757.693 343.559 757.857 346.15C757.408 346.793 757.155 347.147 756.867 347.884C753.656 345.21 750.421 342.566 747.16 339.954Z"/><path fill="#2E3F41" d="M235.697 335.386C237.275 331.789 240.226 326.669 242.411 323.368C240.359 330.018 239.528 332.991 236.125 339.073C235.43 336.831 236.847 337.804 235.697 335.386Z"/><path fill="#2E3F41" d="M880.786 389.843C881.374 388.359 881.529 387.453 882.847 386.59C885.028 386.51 887.418 386.476 889.576 386.333L889.921 387.577C887.231 388.288 883.444 389.393 880.786 389.843Z"/><path fill="#2E3F41" fill-opacity="0.97254902" d="M850.335 413.547L850.666 412.517C853.026 413.683 855.634 414.728 857.472 416.53C857.423 416.491 857.373 416.452 857.323 416.412L856.094 415.482L856.507 416.554C853.97 415.526 852.693 414.85 850.335 413.547Z"/><path fill="#5B5C5E" fill-opacity="0.96862745" d="M125.25 425.02C127.73 423.587 130.437 422.17 132.966 420.789L135.078 422.4L125.25 425.02Z"/><path fill="#2E3F41" d="M179.517 410.082C177.505 410.53 174.32 411.417 172.365 410.952C173.204 409.962 174.373 409.687 175.621 409.202C177.389 409.909 177.693 409.894 179.517 410.082Z"/><path fill="#5B5C5E" fill-opacity="0.90196079" d="M889.576 386.333C891.027 385.988 892.802 385.292 893.985 385.716C892.58 386.978 891.725 387.059 889.921 387.577L889.576 386.333Z"/><path fill="#2E3F41" fill-opacity="0.98823529" d="M869.783 861.939C868.524 861.316 868.549 861.402 867.674 860.327C868.857 859.281 869.02 859.629 871.003 859.486L869.783 861.939Z"/><path fill="#2E3F41" fill-opacity="0.94509804" d="M130.472 386.219C128.936 385.859 129.431 386.164 128.328 385.148C130.208 384.733 131.387 385.195 133.27 385.629L130.472 386.219Z"/><path d="M119.198 400.164C117.784 400.594 117.876 400.637 116.438 400.378L116.673 399.859L118.917 399.19L119.198 400.164Z"/><path fill="#222F32" d="M513.802 13.6368C517.15 15.0553 527.466 36.956 529.728 41.2556C538.89 58.3021 547.858 75.4524 556.631 92.703C560.83 91.5838 576.608 89.4588 580.029 91.9952C578.944 94.9767 571.529 94.7133 568.387 94.9996C547.968 96.748 528.634 104.947 513.182 118.41C511.79 116.922 510.221 115.521 508.725 114.131C493.882 103.306 475.809 97.2844 457.734 94.6883C454.039 94.1577 439.416 95.1222 437.792 92.6595C441.905 88.1107 465.155 92.1655 471.445 93.1021C480.276 77.4395 488.537 61.1095 496.839 45.1547C502.294 34.6722 507.503 23.6169 513.802 13.6368ZM476.542 94.5203C479.663 95.534 483.044 96.5288 486.026 97.8605C491.895 86.9302 497.671 75.9501 503.354 64.9214C506.57 58.7454 510.617 50.5239 514.263 44.7542C517.309 47.9335 539.34 91.2254 542.026 96.9537C545.115 95.939 548.67 94.6806 551.774 93.8678C548.51 88.9447 543.384 78.0605 540.391 72.1759C533.948 59.5247 527.43 46.9119 520.838 34.3382C519.912 32.5634 515.158 23.1438 514.269 22.3075C502.873 43.733 492.137 65.445 480.614 86.7961C479.256 89.3113 477.732 91.9479 476.542 94.5203ZM512.399 111.684C512.253 107.525 511.662 103.659 514.171 100.28C517.477 103.821 516.554 106.357 515.966 110.862C523.909 105.232 528.979 101.822 538.254 98.4178C535.451 92.8641 517.511 56.052 514.299 52.8562C506.648 67.8285 497.832 84.544 489.809 99.3704C498.457 103.154 504.571 106.139 512.399 111.684Z"/><path fill="#222F32" d="M976.779 848.078C978.321 848.369 978.761 848.663 979.193 850.011C978.366 851.149 978.218 851.38 976.794 851.86C966.923 855.19 957.61 857.881 948.43 863.072C952.001 872.193 958.87 884.543 963.577 893.399L988.043 939.242C967.454 938.374 942.025 939.088 921.125 939.109C915.677 939.097 911.22 939.082 905.776 939.521C907.025 944.005 910.795 953.794 908.869 957.616L907.926 957.782C905.176 955.628 904.3 951.786 903.351 948.639C892.288 911.981 914.356 875.301 946.99 858.736C957.125 853.591 965.858 850.957 976.779 848.078ZM934.767 871.619L952.701 905.908C955.485 911.345 959.417 918.619 961.41 924.167C944.84 924.267 920.937 923.377 905.08 924.54C905.227 927.928 905.174 931.655 905.471 934.969L914.875 934.876L980.107 934.741C967.244 912.781 955.902 888.027 943.81 865.631C940.812 867.57 937.657 869.544 934.767 871.619ZM905.609 920.482C913.196 920.295 920.786 920.203 928.375 920.206L955.369 920.041C952.058 913.25 934.836 877.24 931.223 874.4C916.141 887.196 909.291 901.506 905.609 920.482Z"/><path fill="#222F32" d="M48.5144 853.292C57.2644 854.158 73.113 861.262 79.9427 865.782C106.615 883.435 121.056 911.932 123.595 943.269C123.876 946.738 127.63 953.054 125.478 956.311L124.358 956.301C120.959 953.25 119.633 944.188 118.794 939.587C113.639 939.248 111.005 939.132 105.743 939.328L63.9035 939.098C56.6592 939.096 48.6047 938.893 41.4569 939.532C54.1077 916.311 66.1572 893.184 79.5201 870.31C70.8476 864.546 60.1163 861.131 50.6066 857.191C49.1035 856.568 48.8464 856.425 48.0646 855.289L48.5144 853.292ZM49.9829 934.775C69.4661 934.983 88.951 934.992 108.434 934.8L117.989 934.612C117.258 931.169 116.392 927.447 115.772 924.01L68.4852 923.932C72.5851 912.934 85.4277 891.31 91.7405 881.095C89.6402 879.124 85.9453 875.455 83.8181 873.792L60.4801 915.129C57.2683 920.935 52.6895 928.849 49.9829 934.775ZM75.1698 919.797C81.9038 919.948 88.6394 920.01 95.375 919.984C100.904 919.971 109.371 920.182 114.637 919.755C110.925 909.826 103.153 890.542 94.3988 884.291C88.8394 893.463 79.6961 910.146 75.1698 919.797Z"/><path fill="#222F32" d="M939.776 844.506C941.816 844.627 942.175 845.022 943.263 846.535C943.233 847.532 943.325 848.659 942.212 849.345C938.923 851.316 935.359 853.26 931.945 855.002C910.11 866.147 894.903 887.216 890.769 911.293C889.975 915.918 890.428 922.814 888.1 926.806C886.997 926.796 886.898 926.668 885.802 926.375C879.21 920.413 889.666 890.268 893.528 883.003C903.262 864.573 919.885 850.735 939.776 844.506Z"/><path fill="#222F32" d="M83.2739 851.886C107.885 858.731 129.009 885.108 135.96 908.765C137.508 914.034 140.027 921.005 137.237 926.056C136.519 925.848 134.275 924.932 134.069 924.446C131.902 919.316 130.004 911.02 128.043 905.874C125.824 900.108 123.068 894.564 119.81 889.315C113.005 878.343 104.126 869.858 93.241 863.086C90.4934 861.376 83.6599 857.917 82.2293 855.544C82.0046 853.846 82.4478 853.396 83.2739 851.886Z"/><path fill="#222F32" d="M458.531 105.766C474.705 107.212 494.779 115.189 506.005 127.543C508.371 130.145 510.113 132.805 509.779 136.317C506.69 135.748 504.638 132.081 502.37 129.678C499.211 126.31 495.624 123.371 491.699 120.937C480.697 113.992 471.88 112.313 459.375 109.478C458.358 107.938 458.688 107.903 458.531 105.766Z"/><path fill="#222F32" d="M561.298 106.111C563.119 106.532 562.991 106.184 563.998 107.349C563.414 110.269 558.596 111.296 555.749 112.146C537.822 117.499 529.928 121.626 517.936 135.659C517.413 136.254 517.538 136.056 516.679 136.372C515.314 134.064 516.869 131.103 518.322 129.23C527.335 117.606 547.37 108.855 561.298 106.111Z"/><path fill="#222F32" d="M108.722 315.739C112.263 315.457 115.393 318.025 115.808 321.554C116.222 325.082 113.772 328.306 110.261 328.851C107.871 329.223 105.469 328.258 104 326.337C102.531 324.416 102.229 321.845 103.213 319.636C104.197 317.426 106.311 315.932 108.722 315.739ZM110.221 325.497C111.37 325.12 112.223 324.149 112.447 322.961C112.671 321.773 112.231 320.558 111.298 319.789C110.366 319.02 109.089 318.819 107.966 319.265C106.3 319.926 105.461 321.79 106.071 323.475C106.681 325.159 108.519 326.055 110.221 325.497Z"/><path fill="#222F32" d="M169.092 279.697C171.989 279.306 174.692 281.234 175.265 284.101C175.839 286.968 174.087 289.787 171.262 290.542C169.268 291.074 167.144 290.454 165.749 288.934C164.354 287.413 163.92 285.243 164.622 283.303C165.324 281.362 167.047 279.973 169.092 279.697ZM170.719 287.319C171.495 286.923 171.992 286.135 172.015 285.264C172.039 284.394 171.586 283.58 170.834 283.142C170.081 282.703 169.15 282.71 168.404 283.16C167.306 283.823 166.93 285.237 167.554 286.358C168.178 287.478 169.577 287.904 170.719 287.319Z"/><path fill="#222F32" d="M890.059 301.235C892.937 300.176 896.126 301.669 897.157 304.557C898.189 307.445 896.666 310.62 893.768 311.624C890.909 312.615 887.785 311.117 886.767 308.267C885.75 305.417 887.218 302.279 890.059 301.235ZM892.825 308.764C893.638 308.379 894.161 307.566 894.176 306.667C894.19 305.768 893.693 304.938 892.894 304.527C892.094 304.116 891.13 304.195 890.407 304.73C889.43 305.454 889.162 306.8 889.787 307.843C890.412 308.886 891.726 309.284 892.825 308.764Z"/><path fill="#222F32" d="M825.7 259.207C828.591 259.046 831.097 261.19 831.385 264.072C831.672 266.954 829.64 269.551 826.774 269.965C824.804 270.25 822.838 269.43 821.653 267.832C820.468 266.233 820.256 264.113 821.102 262.311C821.947 260.51 823.713 259.317 825.7 259.207ZM827.335 266.755C828.109 266.251 828.54 265.36 828.455 264.44C828.37 263.52 827.783 262.723 826.93 262.369C826.077 262.015 825.098 262.163 824.387 262.752C823.372 263.595 823.19 265.083 823.972 266.145C824.754 267.207 826.229 267.475 827.335 266.755Z"/><path fill="#222F32" d="M196.86 257.767C198.638 257.052 200.662 257.347 202.161 258.541C203.66 259.735 204.401 261.642 204.101 263.534C203.801 265.427 202.507 267.012 200.713 267.684C197.985 268.706 194.943 267.344 193.888 264.629C192.833 261.913 194.158 258.855 196.86 257.767ZM199.776 264.562C200.831 263.973 201.213 262.643 200.631 261.584C200.05 260.525 198.722 260.134 197.659 260.709C196.586 261.289 196.191 262.632 196.778 263.701C197.365 264.77 198.711 265.157 199.776 264.562Z"/><path fill="#222F32" d="M132.922 300.281C135.749 300.186 138.152 302.329 138.381 305.148C138.609 307.968 136.582 310.469 133.777 310.831C131.84 311.08 129.924 310.244 128.789 308.655C127.654 307.066 127.485 304.982 128.35 303.231C129.214 301.48 130.971 300.347 132.922 300.281ZM134.107 307.287C134.756 306.812 135.096 306.022 134.997 305.224C134.898 304.425 134.375 303.743 133.629 303.441C132.883 303.138 132.033 303.263 131.405 303.767C130.465 304.522 130.3 305.891 131.034 306.848C131.769 307.805 133.133 308 134.107 307.287Z"/><path fill="#222F32" d="M874.892 278.415C882.269 278.604 884.21 284.755 878.229 289.376C869.286 290.083 870.437 283.325 874.892 278.415ZM877.18 286.282C877.93 286.065 878.5 285.454 878.666 284.692C878.831 283.929 878.565 283.137 877.973 282.629C877.381 282.121 876.558 281.978 875.829 282.257C874.766 282.665 874.213 283.838 874.575 284.918C874.938 285.997 876.087 286.599 877.18 286.282Z"/><path fill="#222F32" d="M851.198 291.991C850.372 290.069 849.586 288.13 848.841 286.176C848.031 283.992 847.634 283.07 848.613 280.925C851.607 277.866 857.008 278.152 857.541 283.213C857.832 285.977 854.781 288.561 852.912 290.444C852.474 290.848 851.637 291.671 851.198 291.991Z"/><path fill="#222F32" d="M830.967 293.083C828.358 291.622 825.972 290.097 826.816 286.874C829.364 283.9 833.549 283.291 836.826 285.439C839.516 290.001 835.34 291.372 833.35 293.907L833.726 297.115L832.03 297.59C831.724 295.529 831.659 295.019 830.967 293.083Z"/><path fill="#2E3F41" d="M830.967 293.083L832.887 293.229L833.35 293.907L833.726 297.115L832.03 297.59C831.724 295.529 831.659 295.019 830.967 293.083Z"/><path fill="#222F32" d="M145.493 276.737C148.014 275.636 150.951 276.789 152.049 279.312C153.148 281.834 151.992 284.769 149.468 285.865C146.948 286.96 144.018 285.806 142.921 283.287C141.824 280.768 142.975 277.837 145.493 276.737Z"/><path fill="#222F32" d="M890.607 943.173C893.854 944.6 896.893 953.881 894.415 957.363C892.276 955.982 890.194 951.165 889.673 948.621C889.034 945.503 889.204 945.471 890.607 943.173Z"/><path fill="#222F32" d="M54.9437 839.891C59.4746 840.201 64.5283 840.246 64.4312 845.657C60.0155 844.905 55.7601 844.876 54.9437 839.891Z"/><path fill="#222F32" d="M133.05 944.301C136.322 946.984 136.858 950.777 134.995 954.48C131.231 951.922 130.582 948.092 133.05 944.301Z"/><path fill="#222F32" d="M965.972 834.111C967.473 834.05 968.114 833.871 969.401 834.636L969.314 835.522C967.114 837.433 965.681 837.795 962.989 838.864C961.356 839.002 961.467 838.968 959.945 838.313L959.83 837.391C961.707 834.974 963.081 834.811 965.972 834.111Z"/><path fill="#222F32" d="M574.216 105.149C576.637 105.011 579.062 104.679 580.862 106.474C580.345 107.873 580.269 107.544 578.698 108.533C576.679 108.528 573.865 108.477 572.323 107.092L572.512 106.179L574.216 105.149Z"/><path fill="#222F32" d="M439.961 105.224C441.903 105.225 442.052 105.323 443.875 105.775C445.519 107.231 444.978 106.363 445.569 108.469C444.11 108.942 444.198 108.898 442.656 108.768C441.024 107.85 440.798 106.918 439.961 105.224Z"/></svg>