<?xml version="1.0" encoding="utf-8" ?><svg xmlns="http://www.w3.org/2000/svg" xmlns:xlink="http://www.w3.org/1999/xlink" width="1024" height="1024" viewBox="0 0 1024 1024"><path fill="#395240" d="M512.1 16.7899C513.746 18.4961 516.715 24.7706 517.877 27.1566C535.678 63.7303 554.851 99.7875 571.931 136.691C631.4 145.651 695.215 174.501 742.085 211.748C825.625 278.138 872.527 366.628 885.587 471.493C890.555 475.182 895.653 478.909 899.367 483.877C906.431 493.324 910.918 506.487 909.126 518.308C906.718 534.187 896.966 545.677 884.605 555.01C881.586 586.281 875.019 617.106 865.029 646.891C859.827 662.894 849.517 686.512 847.566 702.213C853.203 696.447 858.354 689.743 864.72 684.709C878.744 697.423 883.566 706.997 889.845 724.129C894.47 718.392 898.045 711.997 906.018 715.258C914.211 711.493 919.315 705.727 925.647 702.895C927.024 705.238 928.542 708.195 929.547 710.71C938.456 732.996 941.808 757.789 932.786 780.612C930.921 785.33 929.016 789.884 927.127 794.526C943.861 788.249 951.555 785.69 969.218 782.841L954.77 804.02C944.219 819.543 933.668 836.093 916.154 844.362C933.418 878.823 950.472 913.388 967.315 948.058C971.797 957.153 976.352 966.213 980.977 975.237C984.082 981.333 988.355 989.109 990.453 995.421C985.729 995.821 978.055 995.631 973.131 995.654L939.706 995.756L837.687 995.855L517.625 995.866L193.835 995.809L94.2435 995.802C74.292 995.819 52.4706 996.638 32.786 995.03C34.2651 990.333 39.4837 980.447 41.8692 975.734L61.5606 937.576C77.4487 906.73 92.7216 874.417 109.253 843.931C99.3048 838.172 91.018 832.14 83.075 823.712C79.6648 820.116 76.5516 816.251 73.7659 812.153C70.3365 807.063 60.5471 789.102 60.7246 782.979C64.5685 777.519 93.8049 793.031 98.8739 795.997C94.4175 785.788 90.6377 777.368 88.5544 766.248C85.3384 749.125 86.52 731.466 91.9886 714.923C93.1542 711.451 95.4822 703.422 99.5483 702.949C103.907 704.507 113.742 713.541 117.359 716.982C118.299 715.425 119.526 713.715 120.561 712.19C123.632 713.949 128.12 717.757 131.018 720.068C134.668 711.122 148.528 688.442 159.705 684.873C162.33 684.034 171.481 695.032 173.924 697.659L177.247 692.647C157.479 654.41 143.737 597.904 139.183 555.468C133.843 552.157 129.553 548.534 125.666 543.525C117.984 533.473 114.624 520.775 116.329 508.239C118.492 492.364 126.096 482.992 138.303 473.725C140.865 457.074 142.322 445.403 146.183 428.322C157.02 381.637 176.232 337.305 202.888 297.476C260.752 211.229 350.318 156.501 451.464 136.57C454.42 129.6 459.266 120.7 462.755 113.849L483.382 73.1136C488.675 62.5989 493.902 52.051 499.063 41.4706C502.309 34.7913 507.955 22.3567 512.1 16.7899ZM283.704 954.992C294.892 932.012 320.663 903.9 342.897 891.251C382.268 868.856 426.677 876.498 460.779 904.597C475.292 916.556 481.907 931.046 501.234 936.058C528.666 943.172 540.16 926.469 557.862 910.033C564.578 903.786 572.004 898.346 579.986 893.826C631.813 864.233 690.853 882.609 725.538 928.501C728.702 932.687 737.539 943.389 736.081 948.474C732.735 948.044 728.072 939.769 726.114 936.835C709.687 912.215 685.372 893.956 656.694 886.373C624.382 877.83 587.775 889.052 563.098 910.593C545.466 925.985 534.197 944.998 507.295 941.028C483.523 938.366 478.073 926.151 461.678 911.208C453.88 903.997 445.115 897.907 435.637 893.113C412.935 881.397 386.496 879.227 362.188 887.085C331.727 897.177 302.904 926.811 288.616 955.018L467.604 954.518C457.13 949.656 447.575 944.749 437.818 938.55C430.328 933.792 422.254 926.982 414.489 922.96C385.594 907.993 351.166 915.647 324.632 932.076C319.136 935.479 314.216 939.702 308.912 942.735C308.346 943.059 308.081 942.629 307.473 942.169C306.72 931.489 348.914 916.088 357.159 913.559C417.178 895.143 438.654 953.701 494.9 954.602C499.867 955.065 503.77 955.031 508.731 955.008C519.71 955.016 533.171 955.553 543.738 953.195C564.101 948.419 582.375 935.184 599.643 923.988C639.387 898.219 686.381 913.117 719.953 941.616C722.217 943.538 726.704 947.45 726.909 950.465C724.68 951.013 720.601 946.594 718.74 945.091C695.65 926.453 666.497 912.981 636.296 915.313C612.636 917.14 596.251 931.378 577.161 943.411C570.503 947.607 562.56 951.164 555.376 954.463C574.214 954.868 591.905 954.55 610.647 954.592C650.264 954.984 689.884 954.95 729.5 954.491L914.268 954.975C908.975 945.297 901.875 935.469 896.125 925.958C891.045 917.554 887.938 910.87 884.061 902.002C869.621 897.932 865.355 895.325 853.353 886.843C842.281 908.979 817.214 919.829 793.574 921.431C789.866 921.682 779.606 923.095 777.207 919.959C777.29 918.231 778.145 917.194 779.507 916.071C795.616 902.796 810.948 890.106 825.999 875.562C822.663 876.815 818.646 878.446 815.438 879.921C795.041 888.869 770.849 887.95 750.038 879.759C734.792 873.385 717.523 861.165 708.34 847.361C704.825 842.077 742.137 836.349 745.81 835.798C732.5 828.282 725.463 821.636 716.671 809.25C703.322 809.956 691.2 811.55 677.783 810.591C664.084 809.612 651.078 807.263 637.494 805.227C616.42 801.829 596.373 802.181 575.337 805.29C552.762 808.626 533.39 816.981 511.993 823.602C477.347 810.166 435.308 799.218 398.145 802.658C365.375 805.692 339.355 816.308 305.9 807.021C299.476 818.036 291.733 826.503 282.785 835.372C286.771 835.882 317.675 839.657 314.369 846.157C309.303 856.118 295.53 867.772 285.819 873.546C258.495 889.789 229.67 887.234 200.167 879.384C211.409 888.286 239.98 909.249 244.69 921.691C237.412 923.153 224.99 922.198 217.712 920.688C194.398 915.848 181.409 906.925 168.225 887.657C160.026 896.586 154.33 899.185 142.631 900.854C141.159 903.11 139.763 905.522 138.499 907.902C129.848 924.201 119.555 939.324 109.888 955.016L283.704 954.992ZM775.864 744.839C776.667 736.708 778.792 710.086 784.792 703.819C787.219 701.285 803.028 705.716 807.182 707.134C807.836 707.357 808.485 707.593 809.129 707.843C806.006 699.925 801.479 690.843 797.702 683.09C779.379 683.279 766.791 684.31 748.615 687.748C716.697 693.785 684.248 704.297 651.576 703.099C640.235 702.723 628.947 701.402 617.826 699.149C591.724 693.783 565.471 685.885 539.72 678.962C538.322 678.586 536.978 678.427 535.557 678.71C528.094 679.421 516.846 679.604 509.983 681.261C478.03 688.979 446.323 698.952 413.296 701.468C392.946 703.006 372.493 702.491 352.246 699.932C315.894 695.424 281.426 683.51 244.248 690.1C233.202 692.059 222.745 694.467 215.249 703.603L214.96 703.962C223.488 701.859 228.765 700.861 237.589 700.228C244.248 716.188 244.711 727.652 246.741 744.47C254.4 742.384 274.921 738.511 281.916 741.321C288.572 743.995 285.469 772.512 284.263 778.881C288.26 778.364 315.971 777.564 315.246 784.382C314.794 788.635 309.66 799.02 307.568 803.466C341.304 810.751 359.509 803.216 392.188 799.038C428.717 794.368 465.557 802.831 499.857 815.007C514.886 820.26 514.939 818.7 529.808 813.178C563.55 800.647 601.821 795.065 637.578 800.797C662.999 804.872 687.786 808.77 713.698 804.989C709.521 797.612 707.476 792.936 704.595 785.047C718.226 777.202 726.373 776.624 742.1 777.121C739.778 765.638 739.704 751.571 742.138 740.079C753.494 738.632 765.432 739.971 775.864 744.839ZM847.142 889.897C846.558 887.461 846.187 883.524 845.865 880.908C843.819 876.098 841.781 874.273 837.481 871.297C828.214 879.857 819.134 888.223 809.633 896.535C802.718 902.585 791.447 910.724 785.501 917.061C808.918 916.968 832.95 909.799 847.142 889.897Z"/><path fill="#395240" d="M394.019 825.904C397.131 827.22 407.564 837.983 412.575 841.524C432.708 855.75 456.614 864.586 474.235 881.956C481.97 889.58 487.187 898.641 493.883 906.922C497.993 912.005 504.73 919.255 511.53 919.727C520.867 920.376 529.284 908.04 534.293 901.36C540.732 892.658 547.545 883.319 555.969 876.409C576.236 859.783 602.057 851.365 620.988 832.827C622.464 831.382 626.028 828.417 628.051 828.589C628.532 830.297 628.467 829.395 627.781 831.39C608.678 853.871 579.66 861.513 557.851 880.241C552.968 884.435 548.485 889.349 544.51 894.405C537.622 903.169 530.554 916.212 520.655 921.662C516.451 923.977 511.695 924.42 507.139 922.903C493.651 918.409 481.915 896.368 471.852 885.771C467.276 880.953 461.998 876.897 456.458 873.254C442.833 864.294 399.543 843.058 393.835 829.734C393.129 828.085 393.45 827.472 394.019 825.904Z"/><path fill="#395240" d="M512.08 823.843C513.116 824.907 514.888 829.444 515.557 831.08C520.754 843.797 526.608 845.989 537.351 852.628C530.606 857.726 525.968 859.801 520.728 866.989C515.362 874.349 516.396 880.954 512.523 888.276C509.499 885.657 506.46 872.072 502.934 867.178C498.327 860.783 493.335 858.463 487.977 853.067L487.489 852.572C492.482 847.65 499.29 845.432 503.665 839.716C507.396 834.842 509.685 829.428 512.08 823.843ZM493.881 852.768C503.288 860.906 506.968 863.987 512.287 875.539C516.876 865.048 519.658 859.364 529.666 852.882C522.44 848.332 519.116 846.249 514.9 838.563C514.633 838.077 512.028 833.527 511.857 833.358C507.895 842.682 502.828 847.854 493.881 852.768Z"/><path fill="#0D090C" fill-opacity="0.011764706" d="M529.861 952.801C529.872 953.151 529.915 952.879 529.373 953.848C527.68 954.38 524.683 954.161 522.795 954.129L522.914 953.619C524.282 953.04 528.18 952.922 529.861 952.801Z"/><path fill="#FEFEFE" d="M553.9 300.364C559.718 300.842 566.847 303.539 572.291 305.677C595.025 314.435 615.911 327.386 633.864 343.855C671.309 378.293 695.482 425.695 697.234 476.906C700.687 577.806 618.851 670.528 516.991 674.488C489.832 674.719 473.59 674.734 452.741 654.567C433.206 635.671 421.215 611.678 420.86 584.257C420.726 568.205 425.19 552.45 433.726 538.855C467.502 484.273 532.923 489.042 574.763 446.006C612.86 406.82 612.083 349.797 570.894 313.822C565.664 309.255 559.291 305.61 554.408 300.865L553.9 300.364Z"/><path fill="#395240" d="M511.077 559.207C523.672 558.2 534.701 567.589 535.716 580.184C536.731 592.778 527.349 603.813 514.755 604.836C502.15 605.86 491.104 596.467 490.088 583.862C489.072 571.256 498.471 560.215 511.077 559.207Z"/><path fill="#5A765D" d="M511.036 563.284C521.33 562.276 530.525 569.724 531.677 580.003C532.828 590.282 525.509 599.58 515.247 600.875C508.48 601.73 501.777 598.874 497.705 593.402C493.632 587.931 492.821 580.69 495.582 574.453C498.343 568.216 504.247 563.948 511.036 563.284Z"/><path fill="#395240" d="M497.781 716.77C516.153 716.353 538.304 716.541 543.01 738.982C546.021 753.336 542.005 767.392 528.292 774.324C516.798 778.643 501.728 777.214 489.505 777.377L494.47 771.624C495.499 757.611 494.816 737.231 494.497 723.041C493.089 720.999 491.427 719.152 489.814 717.262L497.781 716.77ZM505.53 769.949C513.289 770.656 521.171 771.39 527.12 765.091C530.334 760.792 532.382 756.257 532.732 750.889C534.165 728.963 525.891 722.556 505.444 723.516L505.53 769.949Z"/><path fill="#395240" d="M603.257 716.675C616.198 717.38 636.478 713.069 645.053 725.317C651.658 734.751 646.44 744.995 637.764 750.457C641.924 757.089 647.655 765.499 652.716 771.5C653.595 772.543 656.888 774.878 658.469 776.374L658.411 777.168C652.814 779.861 644.995 777.135 640.334 773.568C635.884 768.761 629.693 759.767 625.338 754.128L617.957 753.815C618.126 759.427 618.068 765.445 618.108 771.089C619.548 773.779 620.773 775.215 622.639 777.574C616.65 777.654 609.087 777.252 603.09 776.902C605.506 773.284 605.935 770.667 606.161 766.365C606.914 752.058 606.596 737.503 606.496 723.187C604.75 721.615 602.026 719.769 602.074 717.358L603.257 716.675ZM617.778 748.836C623.908 748.363 628.072 748.469 633.094 744.63C636.174 740.655 636.618 739.682 637.771 734.772C634.426 723.279 628.16 723.278 617.526 723.47C617.498 731.926 617.582 740.382 617.778 748.836Z"/><path fill="#395240" d="M480.43 717.054C480.693 718.263 479.757 720.475 479.353 721.714C476.735 729.74 478.268 751.709 478.365 761.052C478.467 766.968 478.315 772.887 477.912 778.79C463.692 764.145 449.689 749.625 434.603 735.839C433.662 743.884 434.052 754.685 433.945 762.99C433.861 769.494 434.889 773.209 439.522 777.633L431.625 777.777L423.165 777.988C424.849 775.973 426.347 773.822 427.887 771.693C428.154 764.004 427.459 721.053 428.907 717.302C433.366 717.372 445.115 729.92 448.697 733.482L471.994 756.667C473.185 749.352 472.846 729.376 471.937 721.606C471.8 720.428 470.351 718.179 469.655 717.106L480.43 717.054Z"/><path fill="#395240" d="M389.191 715.59C390.983 715.936 392.637 716.758 393.563 718.457C403.284 736.291 407.683 762.863 421.194 777.968C413.633 777.694 406.068 777.528 398.502 777.469C400.457 775.33 400.99 774.467 402.506 772.064C401.642 767.504 400.359 762.887 397.752 758.96C396.499 757.072 396.456 757.356 394.625 757.001C389.461 756.991 384.297 756.883 379.136 756.678C377.422 760.565 375.33 765.267 374.192 769.348C373.184 772.967 374.374 774.048 376.299 777.158C371.066 777.694 365.947 777.194 360.689 778.073C370.025 769.297 375.667 749.625 380.316 737.305C383.095 729.995 386.054 722.754 389.191 715.59ZM380.497 752.549L388.982 752.59C391.112 752.665 393.541 752.82 395.639 752.67C394.559 749.961 389.371 735.019 388.242 733.864C384.888 740.131 382.783 745.898 380.497 752.549Z"/><path fill="#395240" d="M551.371 716.607C565.359 716.514 578.975 716.189 592.95 717.133C592.967 720.898 592.805 724.871 592.71 728.652C590.881 726.61 589.111 724.86 587.171 722.94C580.423 722.496 575.711 722.635 569.055 722.997C569.121 729.518 569.129 736.038 569.078 742.558C574.238 742.539 578.199 742.422 583.368 742.066L586.752 736.983C586.427 741.63 586.542 747.588 586.504 752.335C585.311 751.117 583.942 749.36 582.832 748.018C577.729 747.853 573.772 747.771 568.632 748.021C568.57 754.097 568.601 760.174 568.727 766.249L569.083 772.017C581.389 772.106 590.392 773.423 597.943 761.624C597.517 765.177 596.903 774.527 594.459 776.994C593.538 777.924 555.365 777.39 551.328 777.553C557.442 772.46 557.733 770.171 557.755 762.33C557.792 749.374 557.639 736.411 557.547 723.455C555.61 721.078 553.464 718.851 551.371 716.607Z"/><path fill="#0D090C" fill-opacity="0.011764706" d="M642.517 750.733L643.321 750.721L642.71 752.736C642.061 752.574 642.407 752.741 641.802 752.026L642.517 750.733Z"/><path fill="#5A765D" d="M510.46 293.718C519.904 293.256 535.745 293.753 544.201 298.772C584.649 322.783 612.623 365.217 591.851 412.886C587.541 422.791 581.757 431.986 574.695 440.16C552.059 466.478 523.764 473.296 493.597 486.416C467.114 497.934 441.082 516.765 427.077 542.399C406.505 580.056 417.569 623.826 445.85 654.026C448.628 656.991 460.568 666.552 461.161 668.608L459.888 668.621C434.846 662.385 409.474 644.562 390.419 627.438C351.363 592.351 327.891 543.153 325.193 490.72C322.571 439.106 342.045 391.977 376.972 354.663C413.121 316.042 457.947 296.3 510.46 293.718Z"/><path fill="#395240" d="M510.593 357.192C523.835 356.317 535.31 366.273 536.312 379.505C537.315 392.738 527.471 404.309 514.249 405.44C500.844 406.586 489.079 396.577 488.062 383.162C487.045 369.746 497.168 358.078 510.593 357.192Z"/><path fill="#FEFEFE" d="M508.946 361.732C516.029 360.592 523.178 363.352 527.659 368.956C532.139 374.56 533.258 382.141 530.587 388.8C527.917 395.459 521.87 400.167 514.759 401.122C503.96 402.572 494.002 395.074 492.411 384.296C490.821 373.517 498.189 363.462 508.946 361.732Z"/><path fill="#FEFEFE" d="M574.834 141.347C582.644 142.24 593.461 145.096 600.999 147.121C635.26 156.109 668.135 169.73 698.712 187.607C737.179 210.243 771.263 239.61 799.338 274.306C811.733 289.627 826.146 308.596 833.066 327.078C844.953 358.822 833.244 395.741 817.806 424.247C802.6 452.323 781.6 478.14 790.581 512.219C794.821 528.274 805.281 541.98 819.649 550.307C833.096 558.046 848.548 562.472 864.26 561.319C869.13 560.962 874.875 559.291 879.664 558.001C878.719 596.018 857.984 654.331 844.897 690.591C831.179 659.011 812.319 622.798 797.019 591.572L710.502 414.795C701.361 395.115 691.154 375.705 681.468 356.264L634.834 262.137C627.449 247.295 619.305 232.035 612.387 217.084C623.307 225.09 636.681 234.836 648.932 240.822C656.956 244.742 668.932 248.783 677.465 251.814C696.594 258.608 714.935 264.842 732.989 274.347C753.426 285.107 776.283 303.77 783.347 326.583C787.313 340.494 786.846 356.182 779.981 368.92C769.694 388.008 748.259 393.765 729.607 383.246C723.257 379.665 718.057 375.084 716.078 367.66C715.15 364.062 715.163 360.285 716.116 356.693C719.65 342.864 731.973 343.679 734.459 339.475C734.18 337.687 734.606 338.358 733.264 337.321C725.219 336.545 715.354 345.056 712.663 352.311C705.971 370.351 717.275 383.854 733.112 390.027C755.61 398.797 778.863 387.054 786.781 364.728C792.282 348.83 791.264 331.4 783.949 316.25C765.683 278.805 717.35 260.102 680.132 248.139C652.892 239.384 623.346 224.012 604.868 201.921C601.272 197.622 595.349 183.535 592.584 177.76L574.834 141.347Z"/><path fill="#FEFEFE" d="M445.57 142.192C446.731 141.94 446.672 141.875 447.769 142.281C448.112 144.683 434.737 169.387 432.803 173.833C429.917 180.466 424.583 189.129 421.769 195.943C416.454 208.812 406 217.02 394.867 224.695C369.611 242.466 340.235 249.947 311.719 260.321C273.472 274.234 226.778 307.114 233.661 353.339C237.408 378.481 259.243 396.668 284.605 392.213C309.756 388.683 322.766 357.974 303.002 340.689C300.287 338.33 292.35 335.447 289.697 339.898C291.958 343.932 299.656 341.252 303.842 347.225C307.652 352.661 308.943 356.997 308.055 363.828C307.148 371.281 303.244 378.044 297.243 382.556C289.712 388.135 280.999 389.244 271.952 388.072C246.947 385.099 234.049 359.283 237.983 336.038C244.387 298.188 284.707 274.453 318.065 262.386C333.765 256.706 349.371 252.549 364.88 246.022C382.05 238.796 394.887 230.381 409.745 219.398C406.905 226.653 401.905 235.953 398.341 243.145L378.547 283.343L314.734 413.366C270.238 504.82 225.144 595.981 179.455 686.845C175.032 678.918 171.344 668.412 168.102 659.888C155.054 625.575 148.573 593.374 143.403 557.299C154.331 561.458 164.007 563.22 175.774 561.669C194.328 559.082 211.092 549.223 222.369 534.265C228.45 526.191 232.404 516.719 233.868 506.718C239.413 470.869 214.725 443.308 200.528 413.033C194.837 400.898 190.006 384.228 188.123 370.995C187.044 363.366 186.695 355.651 187.081 347.955C187.995 328.822 191.519 322.912 201.893 306.943C206.72 299.408 211.818 292.05 217.18 284.886C264.526 222.5 330.077 176.356 404.778 152.83C417.643 148.753 432.198 144.111 445.57 142.192Z"/><path fill="#FEFEFE" d="M511.713 25.8808C514.147 28.8636 518.925 38.9012 520.804 42.7092L537.528 77.2619L600.459 204.415C657.361 317.442 713.452 430.876 768.728 544.707C784.569 576.53 800.249 608.433 815.766 640.414C825.522 660.353 834.976 679.001 843.881 699.401C841.898 707.36 840.087 715.337 838.061 723.293C832.03 713.376 828.293 703.286 823.314 692.865L796.857 638.722L721.659 485.944C714.274 470.83 706.658 455.832 699.266 440.73C696.759 435.61 694.788 428.881 692.859 423.397C690.376 416.271 687.522 409.281 684.309 402.453C676.29 385.602 665.476 372.214 657.411 356.04L513.793 66.576C513.219 65.4735 512.992 65.2658 512.188 64.2973L511.48 64.3904C507.869 70.3509 503.641 79.6811 500.436 86.1907L481.336 124.93L421.912 244.034L385.709 316.73C378.768 330.904 372.056 345.261 364.998 359.369C362.555 364.253 358.103 369.365 354.892 373.89C350.144 380.583 344.89 388.397 341.402 395.768C337.105 404.846 332.215 415.779 329.405 425.409C326.197 436.404 325.827 442.32 320.658 452.875C299.892 495.281 278.471 537.496 257.173 579.635L190.996 711.671L184.11 715.803C181.645 710.721 179.72 706.872 176.835 701.974C181.397 693.695 185.249 685.149 189.428 676.67L210.031 635.2L277.182 500.178L511.713 25.8808Z"/><path fill="#FEFEFE" d="M112.821 845.783C118.975 848.025 124.151 849.34 130.453 850.743C124.986 859.803 69.3899 967.933 69.119 970.619C69.0288 971.514 68.9721 971.138 69.5738 971.932C75.9732 972.944 92.949 972.519 100.26 972.509L158.309 972.473L368.917 972.484L761.925 972.485L885.786 972.504C908.379 972.548 933.665 973.432 955.914 972.379L916.571 894.952C910.155 882.148 900.437 864.187 895.776 851.345C901.826 849.951 906.527 848.713 912.462 846.89C917.515 856.065 921.974 865.789 926.513 875.25L964.622 952.417C970.827 964.916 978.838 978.811 984.051 991.494L38.9637 991.541C45.9219 975.983 55.2171 959.589 63.0484 944.179L112.821 845.783Z"/><path fill="#FEFEFE" d="M320.727 496.774C323.217 514.483 325.697 530.928 331.832 547.719C346.506 587.877 371.9 620.96 406.673 645.788C421.177 656.144 429.443 661.957 446.526 668.837C452.973 671.43 459.627 673.478 466.416 674.958C471.614 676.078 485.423 677.599 489.09 679.667L489.012 681.932C450.925 692.59 415.373 699.592 375.36 697.751C330.1 695.669 285.554 677.411 240.056 686.584C233.887 687.828 227.384 690.367 221.456 692.556C231.971 673.518 241.69 653.081 251.488 633.582L292.902 551.52C302.059 533.137 310.709 514.715 320.727 496.774Z"/><path fill="#FEFEFE" d="M702.535 491.788C706.288 495.615 727.544 541.094 731.296 548.689L768.396 623.612C777.445 641.857 786.894 660.337 795.084 678.958C757.148 678.352 723.461 689.524 686.7 696.016C673.101 698.417 658.149 698.385 644.375 697.993C628.715 697.11 562.476 683.866 550.889 675.909C557.984 673.055 566.64 670.807 574.065 668.061C594.679 660.504 613.827 649.431 630.659 635.334C663.656 607.767 686.941 570.345 697.096 528.565C700.209 515.461 701.34 505.109 702.535 491.788Z"/><path fill="#FEFEFE" d="M511.618 106.218C514.342 108.161 556.061 194.05 562.004 206.029L603.541 289.958C609.489 301.965 615.602 313.564 621.4 325.674C613.944 321.75 607.053 316.654 599.583 312.654C572.3 298.044 546.032 290.482 515.04 289.962C483.076 289.79 453.65 296.718 425.33 311.602C417.601 315.664 411.036 320.839 403.261 324.507C405.341 317.673 412.426 304.831 415.919 297.967L435.807 258.32L511.618 106.218Z"/><path fill="#FEFEFE" d="M841.554 341.44C841.79 341.627 842.026 341.815 842.262 342.003C860.694 371.571 878.37 438.398 880.107 468.957C867.937 464.466 858.243 462.892 845.661 466.837C834.123 470.441 825.376 476.748 819.713 487.615C810.803 504.712 815.228 525.454 833.361 534.09C840.072 537.287 847.767 537.311 854.686 534.701C861.124 532.273 866.324 527.372 869.129 521.09C871.893 515.032 872.571 507.406 870.031 501.173C866.708 493.018 855.266 487.117 846.87 490.537L846.62 491.282C850.297 494.92 858.395 492.898 862.881 498.454C866.148 502.501 867.48 506.539 867.087 511.782C866.648 517.657 863.84 523.101 859.307 526.865C854.424 530.932 848.064 532.773 841.764 531.943C824.356 529.687 818.26 513.558 820.627 498.048C824.197 481.599 838.414 470.879 854.813 469.466C867.567 468.375 880.223 472.458 889.935 480.796C898.605 488.264 903.91 498.184 904.718 509.651C905.481 521.507 901.494 533.179 893.637 542.09C872.401 566.303 832.891 558.094 811.403 538.587C803.832 531.675 798.279 522.839 795.335 513.02C783.438 474.05 816.741 442.545 830.435 409.135C840.499 384.581 842.84 367.648 841.554 341.44Z"/><path fill="#FEFEFE" d="M181.282 342.831C181.975 343.488 182.203 344.314 182.196 345.262C182.101 357.141 182.114 366.37 184.562 378.174C187.856 394.158 193.419 409.589 201.082 423.997C217.707 455.277 243.536 488.982 222.964 525.385C207.803 552.213 168.742 567.544 141.021 551.181C131.209 545.51 124.161 536.054 121.529 525.031C118.669 513.562 120.606 501.422 126.893 491.412C133.211 481.233 142.918 473.747 154.677 471.092C166.368 468.368 178.662 470.47 188.783 476.924C198.483 483.149 203.052 490.915 205.458 501.904C205.957 508.638 204.771 515.351 201.224 521.188C197.702 527.113 191.864 531.297 185.121 532.727C178.462 534.084 171.538 532.656 165.959 528.776C154.613 520.822 153.67 502.505 166.285 495.919C168.841 494.584 176.586 493.287 177.828 491.598C175.29 489.326 168.768 490.333 165.746 491.415C155.403 494.53 149.698 510.119 153.844 519.895C163.972 543.779 195.42 543.187 206.512 520.766C210.643 512.435 211.21 502.783 208.083 494.026C204.194 483.031 195.503 474.642 185.033 469.862C170.539 463.244 158.406 464.623 143.845 469.915C145.311 431.098 164.706 377.548 181.282 342.831Z"/><path fill="#FEFEFE" d="M75.0323 968.059C90.0583 936.092 107.828 904.956 123.195 873.106C124.669 870.05 126.506 866.347 128.026 863.22C131.293 859.102 131.659 860.333 134.164 854.936L134.806 854.824C135.399 858.198 132.829 861.476 131.812 864.891C130.687 868.671 130.463 877.144 129.006 880.329C126.328 886.187 122.691 892.662 119.672 898.462L100.505 935.44C96.6969 942.786 92.1216 950.427 90.1977 958.385C104.61 959.583 121.982 959.118 136.626 959.148L212.95 959.159L444.559 958.98L783.319 959.047L883.204 959.072C900.538 959.149 918.283 960.155 935.568 959.479L910.116 909.922C905.596 901.197 900.141 891.423 896.501 882.401C895.41 879.695 895.35 871.957 894.79 868.342L897.766 866.729C909.054 888.321 919.322 909.815 929.693 931.833C935.301 943.738 942.804 956.373 947.786 968.364C938.262 967.654 925.791 968.045 915.94 968.069L866.681 968.038L699.341 968.098L315.25 968.316C236.202 968.46 153.845 969.754 75.0323 968.059Z"/><path fill="#FEFEFE" d="M208.734 742.637C208.921 742.649 209.684 742.995 209.894 743.082C211.385 744.975 212.559 749.13 213.429 751.897C223.79 784.843 223.276 839.967 185.091 854.76C175.542 858.46 164.473 854.143 155.568 849.417C155.183 849.174 154.799 848.928 154.418 848.679C145.417 842.812 140.174 838.971 137.921 827.552C134.506 810.243 138.467 791.407 148.304 776.827C162.501 755.782 184.949 747.396 208.734 742.637Z"/><path fill="#924A1A" d="M190.363 779.402C190.755 782.771 181.08 801.169 179.128 806.493C175.887 815.227 173.354 824.207 171.555 833.348C173.936 830.908 174.661 829.898 177.792 828.725L177.636 830.054C174.98 833.804 164.067 841.651 159.589 843.746C156.149 845.356 155.51 839.804 155.177 837.652L154.584 837.248C151.237 835.011 145.786 830.405 151.344 826.961C154.755 826.643 156.194 828.364 157.457 831.216C157.604 835.184 157.263 837.329 159.641 840.48C166.01 843.513 173.037 822.671 171.428 819.604L170.585 819.508C166.289 822.447 164.791 834.371 162.5 836.758L161.887 836.676C161.833 836.501 161.759 836.331 161.725 836.151C160.338 828.817 184.846 787.749 190.363 779.402Z"/><path fill="#FEFEFE" d="M152.195 828.671C155.762 830.827 156.056 832.339 155.037 836.283C152.307 833.596 151.089 832.644 152.195 828.671Z"/><path fill="#924A1A" d="M182.405 838.019C185.151 838.348 188.102 839.367 187.405 842.717C183.463 847.574 170.688 849.508 164.617 850.562C162.812 850.662 160.892 850.927 159.083 851.142C166.111 846.472 174.413 840.378 182.405 838.019Z"/><path fill="#FEFEFE" d="M170.789 845.605C174.502 843.152 179.021 839.871 183.842 840.836C183.447 844.161 174.015 846.207 171.078 847.163C168.77 848.108 166.725 848.589 164.327 849.23C166.518 847.765 168.463 846.81 170.789 845.605Z"/><path fill="#FEFEFE" d="M812.971 741.809C831.81 747.212 842.507 748.66 860.617 761.219C883.44 777.045 894.125 812.569 881.51 837.69C878.612 843.461 853.409 857.617 848.319 853.286C849.071 851.727 849.999 850.221 850.636 848.695C856.37 834.954 851.102 820.204 845.575 807.279C841.214 798.363 836.896 791.424 829.755 784.589C832.769 790.798 836.685 796.426 840.092 802.662C846.707 814.772 851.888 829.441 849.533 843.434C849.101 846.023 847.322 849.822 844.765 851.012C833.421 856.293 819.009 839.769 814.598 831.494C804.999 813.485 803.653 793.658 805.877 773.872C807.134 762.689 809.913 752.417 812.971 741.809Z"/><path fill="#395240" d="M853.966 802.228C858.988 804.274 860.901 814.026 861.875 818.846C863.911 828.917 863.101 838.775 860.106 848.543L859.683 848.72C857.069 847.04 860.445 836.403 860.556 832.274C860.867 820.709 857.899 812.683 853.966 802.228Z"/><path fill="#FEFEFE" d="M511.691 77.78C515.912 81.6843 539.431 131.23 543.394 139.249L586.256 225.585L615.648 284.581C626.637 306.344 636.952 326.281 646.961 348.577C642.317 344.232 633.727 337.517 630.716 332.542C625.617 324.113 620.896 313.729 616.464 304.785L592.184 255.853C566.566 203.658 540.595 151.636 514.272 99.7926C513.463 98.5634 513.44 98.6354 512.228 97.7578C511.043 97.9968 510.348 98.1935 509.646 99.5919C507.248 104.369 504.829 109.35 502.419 114.104L481.025 157.215L414.457 289.994C410.194 298.608 405.991 307.252 401.849 315.926C394.767 330.641 393.502 335.641 378.68 344.503C382.223 334.845 392.436 315.497 397.26 305.803L435.145 230.201L479.364 141.927C485.871 128.562 492.448 115.232 499.094 101.935C503.072 93.9824 507.181 85.3901 511.691 77.78Z"/><path fill="#FEFEFE" d="M763.161 778.71C772.684 777.767 791.152 781.27 800.337 784.214C800.238 810.273 805.88 842.938 833.44 854.597C838.372 856.683 844.108 856.906 849.391 857.254C845.33 860.711 840.22 863.904 835.663 866.641C831.104 868.643 826.239 869.859 821.274 870.238C779.474 873.219 755.679 814.134 753.178 780.28C757.031 779.303 759.172 779.105 763.161 778.71Z"/><defs><linearGradient id="gradient_0" gradientUnits="userSpaceOnUse" x1="810.2251" y1="843.3277" x2="803.87604" y2="850.82385"><stop offset="0" stop-color="#483E2B"/><stop offset="1" stop-color="#4E5645"/></linearGradient></defs><path fill="url(#gradient_0)" d="M784.043 830.4C789.025 833.335 798.526 844.824 807.09 850.309C817.187 856.775 826.583 857.305 833.171 861.087L833.278 862.05C819.861 864.413 787.903 843.029 784.043 830.4Z"/><path fill="#FEFEFE" d="M259.977 777.702C261.485 777.471 264.905 777.404 266.567 777.321C268.499 786.685 267.675 799.538 266.117 808.876C261.526 836.397 239.852 859.98 212.226 865.308C203.211 867.046 195.567 866.155 186.61 864.452C182.653 863.466 180.003 862.742 176.182 861.372C181.968 858.931 196.615 857.046 198.707 854.969C199.808 850.583 199.161 851.603 202.486 848.454C220.187 831.687 223.021 808.26 223.943 785.335C237.215 781.039 246.399 779.309 259.977 777.702Z"/><path fill="#AE7A5B" d="M236.279 828.411C238.006 835.927 217.042 850.42 210.145 852.545C210.055 852.218 209.985 851.381 209.942 851.008C210.9 849.464 214.436 847.847 216.11 846.772C223.87 841.792 229.936 835.058 236.279 828.411Z"/><path fill="#FEFEFE" d="M121.534 717.168C123.447 718.706 125.308 720.305 127.116 721.963C142.681 736.11 146.137 751.278 147.137 771.354C137.394 786.895 137.244 788.861 132.764 806.522C132.521 807.931 132.418 809.438 131.677 810.611C132.312 813.244 132.817 819.383 133.256 822.383C134.012 827.54 134.868 831.418 136.042 836.467C99.5259 811.977 103.819 751.811 121.534 717.168Z"/><path fill="#924A1A" d="M131.677 810.611C128.338 802.897 126.797 795.759 127.081 787.312C127.176 784.51 129.439 767.648 130.597 766.574C132.324 768.523 131.635 772.919 131.23 775.432C129.564 785.773 128.762 796.446 132.764 806.522C132.521 807.931 132.418 809.438 131.677 810.611Z"/><path fill="#FEFEFE" d="M873.087 766.295C877.585 745.876 888.38 733.386 901.492 717.771C912.641 739.021 920.426 772.787 912.898 796.271C908.298 810.624 900.628 824.733 888.556 834.055C889.687 829.117 891.368 821.782 891.481 816.895C891.762 804.719 891.19 796.789 892.892 784.405C891.407 783.781 891.872 783.921 891.027 781.853C890.238 785.674 889.468 789.789 888.567 793.562C883.914 782.474 881.61 775.368 873.087 766.295Z"/><path fill="#302314" d="M891.027 781.853C891.915 776.492 893.38 768.802 895.104 763.611C894.862 770.781 894.297 777.344 892.892 784.405C891.407 783.781 891.872 783.921 891.027 781.853Z"/><path fill="#FEFEFE" d="M230.941 704.678C232.757 704.456 232.835 704.39 234.723 704.657C235.292 705.203 235.932 706.043 236.141 706.815C242.041 728.686 246.661 755.612 237.526 776.96C232.839 778.44 227.894 779.766 223.152 781.112C221.956 770.703 220.681 763.69 218.06 753.679C213.028 732.327 205.098 738.612 187.982 743.846C187.969 730.2 188.898 733.175 185.098 719.204C196.342 711.823 217.409 706.928 230.941 704.678Z"/><path fill="#AE7A5B" d="M221.712 711.474C223.312 712.276 222.853 711.667 223.495 713.036C221.915 715.498 210.139 720.746 206.517 722.577C205.963 722.451 205.295 722.097 204.747 721.851L204.612 721.129C206.965 718.181 217.858 713.368 221.712 711.474Z"/><path fill="#AE7A5B" d="M198.165 723.405L198.959 723.876C200.688 727.101 195.435 729.255 192.933 730.757C192.349 730.537 192.652 730.738 192.242 729.914C193.458 726.691 195.454 725.354 198.165 723.405Z"/><path fill="#FEFEFE" d="M275.296 839.683C286.024 837.981 300.198 842.455 310.485 845.538C306.281 851.002 301.541 856.031 296.334 860.549C277.784 876.796 257.765 883.412 233.255 881.798C226.197 881.197 199.857 877.286 196.771 871.522C196.899 871.293 197.026 871.063 197.154 870.834C200.986 870.55 208.107 869.786 211.485 869.205C231.285 865.796 242.437 856.839 255.807 842.992C262.321 841.782 268.722 840.537 275.296 839.683Z"/><defs><linearGradient id="gradient_1" gradientUnits="userSpaceOnUse" x1="261.99942" y1="868.4129" x2="258.06824" y2="858.88611"><stop offset="0" stop-color="#884217"/><stop offset="1" stop-color="#A4592B"/></linearGradient></defs><path fill="url(#gradient_1)" d="M292.472 850.022L292.78 850.36C291.548 852.698 283.57 858.461 281.144 859.991C264.657 870.39 247.079 876.773 227.592 872.591C226.637 872.057 226.941 872.276 226.198 871.476C227.047 871.073 235.752 871.701 238.094 871.533C259.287 870.009 274.348 859.446 292.472 850.022Z"/><path fill="#FEFEFE" d="M319.878 466.914L320.187 467.246C320.969 470.131 320.482 484.358 319.442 487.003C317.612 491.657 313.817 499.01 311.502 503.684C305.176 516.45 298.785 529.184 292.33 541.886C273.486 578.759 254.877 615.751 236.505 652.861C227.906 670.132 218.078 687.535 210.656 705.199C206.796 706.137 202.941 707.429 199.148 708.636L198.658 707.782C200.106 704.037 203.17 698.376 205.069 694.626L216.462 672.133L252.985 599.952L297.751 510.784C304.552 497.216 312.423 479.577 319.878 466.914Z"/><path fill="#FEFEFE" d="M702.008 459.882C704.619 462.706 717.259 489.572 719.839 494.837L759.391 575.451C774.084 605.589 788.933 635.651 803.937 665.635C809.21 676.204 814.395 686.815 819.493 697.469C822.19 703.161 826.172 711.314 828.078 717.212C824.565 715.904 819.433 712.891 816.005 711.015C804.272 685.303 791.814 660.529 779.335 635.193L734.901 544.75L715.248 505.368C711.308 497.54 706.351 488.248 703.404 480.059C701.827 475.678 701.98 464.826 702.008 459.882Z"/><path fill="#FEFEFE" d="M159.538 688.231C176.988 704.849 183.433 718.022 183.972 742.246C183.996 743.174 184.004 744.102 183.996 745.031C167.926 752.437 164.971 754.278 151.206 765.899C149.96 756.82 148.173 744.848 143.708 736.648C142.999 735.764 142.283 734.63 141.637 733.677C139.208 729.948 137.136 726.825 134.456 723.286C140.665 707.181 147.064 700.055 159.538 688.231Z"/><path fill="#924A1A" d="M141.637 733.677C144.907 719.614 152.621 707.24 162.728 696.981C159.722 711.743 147.248 715.733 143.708 736.648C142.999 735.764 142.283 734.63 141.637 733.677Z"/><path fill="#FEFEFE" d="M713.429 848.048C730.382 841.556 750.795 837.308 768.75 841.763C776.382 854.644 786.071 864.81 799.87 870.862L802.184 871.628C806.677 872.989 811.206 874.23 815.765 875.349C803.369 879.972 792.95 882.874 779.485 881.875C753.12 879.917 730.786 867.341 713.429 848.048Z"/><path fill="#395240" d="M736.963 846.514C741.036 849.625 744.914 853.252 749.207 856.243C758.508 862.724 776.44 871.317 787.856 871.536C791.239 871.117 796.936 872.091 799.87 870.862L802.184 871.628L801.774 872.628C799.04 876.065 785.613 874.306 781.515 873.476C764.813 870.092 746.674 860.954 736.963 846.514Z"/><path fill="#E8E7E8" d="M799.87 870.862L802.184 871.628L801.774 872.628C798.169 871.351 792.564 872.44 787.856 871.536C791.239 871.117 796.936 872.091 799.87 870.862Z"/><path fill="#FEFEFE" d="M786.874 706.343C809.48 711.096 819.046 715.681 836.666 730.786C835.819 735.325 835.559 738.695 835.206 743.261C832.549 742.172 828.842 741.009 826.056 740.048C819.858 730.291 812.052 722.82 801.301 718.471C805.823 723.641 812.192 727.555 817.387 732.881C819.398 734.984 820.395 736.311 822.094 738.602C817.082 738.572 814.357 738.005 809.408 737.085C805.188 751.139 802.68 765.42 800.672 779.926C795.858 778.599 791.283 777.345 786.404 776.226C778.174 752.582 779.346 729.908 786.874 706.343Z"/><path fill="#FEFEFE" d="M864.694 690.1C875.46 699.531 882.487 715.049 887.455 728.061L882.235 734.834C878.288 721.639 873.388 709.664 863.307 700.027C869.13 712.852 873.675 715.851 878.796 731.628C879.387 733.555 880.047 735.515 880.668 737.439C874.917 745.989 872.319 753.344 869.518 763.119C860.247 754.411 850.894 750.094 839.724 744.518C839.879 741.766 840.1 739.017 840.385 736.275C842.305 717.948 850.329 701.819 864.694 690.1Z"/><path fill="#FEFEFE" d="M729.043 781.677C734.478 781.221 737.343 781.369 742.707 782.173C746.32 787.152 749.028 791.139 750.61 797.189C754.199 810.919 759.438 823.293 765.377 836.151C759.106 835.59 756.609 835.371 750.8 833.159C729.438 822.331 718.535 808.671 710.198 786.472C716.856 784.351 722.08 782.686 729.043 781.677Z"/><defs><linearGradient id="gradient_2" gradientUnits="userSpaceOnUse" x1="739.19958" y1="804.34961" x2="735.31525" y2="807.96075"><stop offset="0" stop-color="#484333"/><stop offset="1" stop-color="#4C5742"/></linearGradient></defs><path fill="url(#gradient_2)" d="M722.368 786.389C723.058 786.682 724.1 787.437 724.469 788.041C729.376 796.317 734.618 803.425 740.849 810.751C745.422 816.127 751.519 818.861 755.974 823.574C743.624 824.062 724.408 797.001 722.368 786.389Z"/><path fill="#FEFEFE" d="M271.55 785.128C286.478 781.912 296.304 782.371 311.362 784.364C306.436 799.817 291.789 824.932 277.279 833.961C273.895 836.067 263.115 837.968 258.785 838.873C259.78 837.244 261.091 834.941 262.227 833.485C262.999 831.69 263.939 829.828 264.789 828.056C270.629 810.809 271.806 803.281 271.55 785.128Z"/><defs><linearGradient id="gradient_3" gradientUnits="userSpaceOnUse" x1="282.44513" y1="811.78784" x2="278.83194" y2="809.25653"><stop offset="0" stop-color="#844518"/><stop offset="1" stop-color="#9D5C32"/></linearGradient></defs><path fill="url(#gradient_3)" d="M264.789 828.056C276.491 818.309 287.466 799.391 299.278 787.107C291.874 801.42 276.355 825.232 262.227 833.485C262.999 831.69 263.939 829.828 264.789 828.056Z"/><path fill="#FEFEFE" d="M958.427 788.693L958.685 788.869L958.72 789.794C945.374 809.537 926.067 846.48 897.914 843.885C896.516 844.655 894.888 845.723 893.509 846.573C889.266 846.893 885.222 846.66 880.983 846.5L880.287 846.041C881.992 842.364 894.658 835.03 898.254 832.593C899.225 831.936 901.636 827.108 902.615 825.816C905.267 822.321 908.499 818.715 911.202 815.335C925.005 798.071 937.126 792.833 958.427 788.693Z"/><path fill="#924A1A" d="M933.413 812.53C931.914 819.414 912.776 833.591 906.885 837.268C906.632 836.358 906.699 836.274 906.658 835.312C908.851 831.972 929.26 815.715 933.413 812.53Z"/><path fill="#AE7A5B" d="M914.732 821.402C914.902 821.608 915.127 822.164 915.254 822.437C914.047 825.202 911.214 826.55 908.646 828.099L908.045 827.438C908.628 825.148 912.644 822.848 914.732 821.402Z"/><path fill="#FEFEFE" d="M873.826 849.975C877.603 850.082 879.913 850.544 883.513 851.465C893.589 866.943 892.221 881.596 889.656 899.081C881.789 897.639 877.182 896.005 870.082 892.472C861.911 888.119 852.66 880.946 847.32 873.269C843.544 867.84 846.412 864.779 851.314 861.941C858.652 857.694 866.278 853.876 873.826 849.975Z"/><path fill="#924A1A" d="M869.658 857.941C879.869 859.258 886.663 880.627 886.367 889.48C885.691 889.092 884.817 888.739 884.674 887.861C882.581 875.074 878.501 867.552 869.658 857.941Z"/><path fill="#FEFEFE" d="M65.3602 785.824C78.2486 789.799 92.3269 794.853 101.959 804.72C107.27 810.161 119.2 823.552 120.766 830.774C127.258 836.434 132.853 838.79 140.228 845.911C132.748 847.316 122.732 845.643 115.818 842.598C89.6468 831.072 75.8875 811.293 65.3602 785.824Z"/><path fill="#924A1A" d="M81.2392 800.28C82.8267 801.131 84.8373 803.941 85.9468 805.465C94.3976 817.074 104.16 825.943 117.531 831.472C121.268 833.017 124.617 835.075 126.983 838.56C124.303 838.638 104.303 827.761 100.813 824.796C94.2212 819.198 82.4592 809.4 81.2392 800.28Z"/><path fill="#FEFEFE" d="M176.761 867.521C194.417 878.229 225.623 903.589 239.422 918.999C217.427 918.47 196.061 913.353 180.225 896.94C176.418 892.985 173.245 888.466 170.818 883.543C171.969 881.513 173.789 878.518 174.713 876.509L175.527 873.999C175.956 871.896 176.468 869.631 176.761 867.521Z"/><path fill="#924A1A" d="M175.527 873.999C178.954 878.197 181.023 884.93 184.22 888.505C190.478 895.502 198.884 901.296 205.854 907.951C191.008 900.811 180.916 891.877 174.713 876.509L175.527 873.999Z"/><path fill="#FEFEFE" d="M145.3 848.795C147.567 850.557 151.368 853.631 153.831 854.876C161.17 858.584 166.027 860.054 172.887 864.91C171.342 877.542 167.091 884.552 156.853 892.134C146.798 898.452 135.582 899.873 133.562 884.968C131.541 870.059 136.681 860.425 145.3 848.795Z"/><path fill="#924A1A" d="M150.294 861.659C153.08 859.014 154.035 858.155 157.581 856.327C155.283 860.945 151.369 865.633 148.447 870.001C144.987 875.172 142.955 879.276 140.71 885.004L139.429 883.645C139.808 880.218 141.135 876.701 142.416 873.533C144.839 868.896 146.872 865.586 150.294 861.659Z"/><path fill="#924A1A" d="M152.719 855.266C151.877 857.024 150.678 858.827 149.638 860.496C146.595 864.158 143.086 869.085 140.247 872.386C142.313 864.546 146.285 859.903 152.719 855.266Z"/><path fill="#784D2A" d="M139.429 883.645L140.71 885.004C140.437 886.185 140.233 886.444 139.672 887.536C139.11 886.593 139.4 884.985 139.429 883.645Z"/><path fill="#FEFEFE" d="M923.473 707.943C926.323 710.685 930.791 725.471 931.736 729.707C936.799 752.411 935.042 779.441 919.701 798.057C918.698 799.274 918.89 799.191 917.496 799.264C923.73 771.66 918.031 745.044 907.039 719.435C914.058 715.564 917.391 712.96 923.473 707.943Z"/><path fill="#924A1A" d="M924.142 725.41C928.648 730.183 927.888 750.258 927.49 756.297C926.684 756.348 927.138 756.411 926.188 755.856C926.167 744.605 924.174 734.852 924.142 725.41Z"/><path fill="#FEFEFE" d="M99.358 707.184C102.01 708.45 112.364 718.426 115.333 721.197C104.004 746.979 101.871 771.888 106.855 799.369L106.736 800.358L106.055 800.251C103.767 797.682 100.641 791.708 99.2952 788.432C87.4645 759.622 87.7779 735.711 99.358 707.184Z"/><path fill="#924A1A" d="M101.264 720.383L101.641 720.942C101.622 723.653 100.149 728.126 99.6039 731.201C98.5044 737.407 98.2318 743.631 97.6986 749.687C97.1358 756.081 100.242 770.376 98.4736 775.217C94.3815 763.997 93.3879 729.97 101.264 720.383Z"/><path fill="#784D2A" d="M839.694 881.342C841.298 884.095 839.84 888.165 838.03 890.492C832.173 898.022 822.502 903.646 813.168 905.373L812.845 904.557C814.164 903.228 817.624 901.772 819.391 901.032C830.805 896.257 834.088 891.73 839.694 881.342Z"/><path fill="#FEFEFE" d="M246.946 748.63C256.715 746.045 271.084 743.998 281.223 744.912C282.119 758.469 281.266 766.328 279.86 779.708C277.091 780.061 273.929 780.533 271.188 780.751C270.7 777.482 270.874 775.505 268.227 773.534C263.073 772.284 248.308 775.164 242.437 776.129L244.225 770.665L245.244 765.974C246.053 759.898 246.515 754.748 246.946 748.63Z"/><path fill="#924A1A" d="M245.244 765.974L245.982 766.012C249.298 763.031 255.496 756.718 259.837 756.531L259.801 756.48L259.645 757.443C256.449 761.928 249.025 768.123 244.225 770.665L245.244 765.974Z"/><path fill="#FEFEFE" d="M745.909 743.984C759.173 743.986 763.591 744.47 775.886 749.536C777.134 761.259 778.422 764.669 781.12 776.055C775.828 771.932 756.977 743 751.96 745.968C754.357 750.25 760.344 755.133 763.895 759.073C768.872 764.595 771.753 768.569 775.597 774.889C768.674 774.403 759.764 773.473 753.171 775.83C750.376 776.829 749.342 778.373 747.689 780.748C744.028 767.72 744.287 757.374 745.909 743.984Z"/><path fill="#FEFEFE" d="M129.657 887.726C132.862 890.735 131.308 894.125 138.477 899.669C127.875 918.499 116.333 936.035 105.792 955.194C102.535 955.075 99.1626 955.057 95.894 954.996C105.502 933.257 118.989 909.656 129.657 887.726Z"/><path fill="#FEFEFE" d="M895.445 891.733C898.916 894.445 924.174 947.084 928.275 955.376L921.375 955.38L920.327 955.273C917.601 953.669 891.512 909.173 889.308 904.335C894.735 901.435 894.391 897.439 895.445 891.733Z"/><path fill="#EEDBB8" d="M890.082 851.354C893.281 856.059 895.465 861.518 897.766 866.729L894.79 868.342C893.394 862.706 891.515 857.357 890.082 851.354Z"/><path fill="#3B383A" fill-opacity="0.015686275" d="M494.9 954.602C497.207 952.269 498.244 953.23 501.724 952.928C502.99 952.817 507.538 952.949 508.397 953.777L508.731 955.008C503.77 955.031 499.867 955.065 494.9 954.602Z"/><path fill="#784D2A" d="M845.865 880.908C850.208 883.5 849.516 885.943 847.142 889.897C846.558 887.461 846.187 883.524 845.865 880.908Z"/><path fill="#EEDBB8" d="M489.09 679.667C491.457 678.41 495.676 679.396 498.485 679.806L489.012 681.932L489.09 679.667Z"/></svg>